NotoKufiArabic-Bold.ufo
<glyph name="year-ar" format="2">
  <advance width="1514"/>
  <unicode hex="0601"/>
  <note>
uni0601
</note>
  <outline>
    <contour>
      <point x="1316" y="-209" type="curve"/>
      <point x="1364" y="-284" type="line"/>
      <point x="1462.667" y="-220"/>
      <point x="1494" y="-170.333"/>
      <point x="1494" y="-113" type="curve" smooth="yes"/>
      <point x="1494" y="-45"/>
      <point x="1446.667" y="3"/>
      <point x="1380" y="3" type="curve" smooth="yes"/>
      <point x="1351.333" y="3"/>
      <point x="1311.5" y="-1.667"/>
      <point x="1260.5" y="-11" type="curve" smooth="yes"/>
      <point x="1209.5" y="-20.333"/>
      <point x="1137" y="-36.667"/>
      <point x="1043" y="-60" type="curve" smooth="yes"/>
      <point x="865.667" y="-102.667"/>
      <point x="759" y="-122"/>
      <point x="695" y="-122" type="curve" smooth="yes"/>
      <point x="654.333" y="-122"/>
      <point x="634" y="-99.667"/>
      <point x="634" y="-55" type="curve" smooth="yes"/>
      <point x="634" y="-7" type="line"/>
      <point x="524" y="-7" type="line"/>
      <point x="524" y="-55" type="line" smooth="yes"/>
      <point x="524" y="-101.667"/>
      <point x="510.667" y="-119"/>
      <point x="476" y="-119" type="curve" smooth="yes"/>
      <point x="458" y="-119"/>
      <point x="443" y="-98"/>
      <point x="414" y="-63" type="curve" smooth="yes"/>
      <point x="382.667" y="-25.667"/>
      <point x="351" y="-7"/>
      <point x="319" y="-7" type="curve" smooth="yes"/>
      <point x="278.333" y="-7"/>
      <point x="244.667" y="-26.333"/>
      <point x="218" y="-65" type="curve" smooth="yes"/>
      <point x="196" y="-98"/>
      <point x="181" y="-123"/>
      <point x="160" y="-123" type="curve" smooth="yes"/>
      <point x="140" y="-123"/>
      <point x="123" y="-110"/>
      <point x="123" y="-82" type="curve" smooth="yes"/>
      <point x="123" y="-62.667"/>
      <point x="129.667" y="-37.667"/>
      <point x="143" y="-7" type="curve"/>
      <point x="42" y="-7" type="line"/>
      <point x="27.333" y="-41"/>
      <point x="20" y="-74.667"/>
      <point x="20" y="-108" type="curve" smooth="yes"/>
      <point x="20" y="-197.333"/>
      <point x="68" y="-243"/>
      <point x="144" y="-243" type="curve" smooth="yes"/>
      <point x="180" y="-243"/>
      <point x="215" y="-223.667"/>
      <point x="249" y="-185" type="curve" smooth="yes"/>
      <point x="269" y="-161.667"/>
      <point x="283.333" y="-146.167"/>
      <point x="292" y="-138.5" type="curve" smooth="yes"/>
      <point x="300.667" y="-130.833"/>
      <point x="308.333" y="-127"/>
      <point x="315" y="-127" type="curve" smooth="yes"/>
      <point x="321" y="-127"/>
      <point x="327.333" y="-129.833"/>
      <point x="334" y="-135.5" type="curve" smooth="yes"/>
      <point x="340.667" y="-141.167"/>
      <point x="355.667" y="-157"/>
      <point x="379" y="-183" type="curve" smooth="yes"/>
      <point x="412.333" y="-220.333"/>
      <point x="444" y="-239"/>
      <point x="474" y="-239" type="curve" smooth="yes"/>
      <point x="518" y="-239"/>
      <point x="567" y="-207.333"/>
      <point x="583" y="-170" type="curve"/>
      <point x="595" y="-207.333"/>
      <point x="641.333" y="-239"/>
      <point x="684" y="-239" type="curve" smooth="yes"/>
      <point x="720" y="-239"/>
      <point x="769.5" y="-233.667"/>
      <point x="832.5" y="-223" type="curve" smooth="yes"/>
      <point x="895.5" y="-212.333"/>
      <point x="1000.667" y="-189.667"/>
      <point x="1148" y="-155" type="curve" smooth="yes"/>
      <point x="1257.333" y="-129.667"/>
      <point x="1324" y="-117"/>
      <point x="1348" y="-117" type="curve" smooth="yes"/>
      <point x="1366" y="-117"/>
      <point x="1375" y="-125.333"/>
      <point x="1375" y="-142" type="curve" smooth="yes"/>
      <point x="1375" y="-163.333"/>
      <point x="1352" y="-189"/>
    </contour>
  </outline>
</glyph>
<glyph name="verseComma-ar" format="2">
  <advance width="1183"/>
  <unicode hex="060E"/>
  <note>
uni060E
</note>
  <outline>
    <contour>
      <point x="1163" y="120" type="curve"/>
      <point x="428" y="120" type="line"/>
      <point x="394.667" y="253.333"/>
      <point x="297.333" y="347"/>
      <point x="192" y="347" type="curve" smooth="yes"/>
      <point x="88" y="347"/>
      <point x="20" y="283.333"/>
      <point x="20" y="182" type="curve" smooth="yes"/>
      <point x="20" y="60.667"/>
      <point x="108" y="0"/>
      <point x="284" y="0" type="curve" smooth="yes"/>
      <point x="1053" y="0" type="line" smooth="yes"/>
      <point x="1126.333" y="0"/>
      <point x="1163" y="40"/>
    </contour>
    <contour>
      <point x="192" y="225" type="curve" smooth="yes"/>
      <point x="244" y="225"/>
      <point x="279" y="197.333"/>
      <point x="307" y="120" type="curve"/>
      <point x="245.667" y="121.333"/>
      <point x="203.5" y="127.167"/>
      <point x="180.5" y="137.5" type="curve" smooth="yes"/>
      <point x="157.5" y="147.833"/>
      <point x="146" y="163.333"/>
      <point x="146" y="184" type="curve" smooth="yes"/>
      <point x="146" y="212"/>
      <point x="165.333" y="225"/>
    </contour>
  </outline>
</glyph>
<glyph name="sadabove-ar" format="2">
  <unicode hex="0610"/>
  <note>
uni0610
</note>
  <anchor x="-10" y="752" name="_top"/>
  <anchor x="-10" y="752" name="_top2"/>
  <anchor x="-5" y="900" name="top"/>
  <outline>
    <contour>
      <point x="-96" y="702" type="line"/>
      <point x="-77.333" y="719.333"/>
      <point x="-63.667" y="737.333"/>
      <point x="-55" y="756" type="curve"/>
      <point x="111" y="756" type="line"/>
      <point x="111" y="815" type="line" smooth="yes"/>
      <point x="111" y="873.667"/>
      <point x="85.333" y="900"/>
      <point x="32" y="900" type="curve" smooth="yes"/>
      <point x="-6.667" y="900"/>
      <point x="-35.667" y="880.333"/>
      <point x="-55" y="841" type="curve"/>
      <point x="-55" y="885" type="line"/>
      <point x="-103" y="871" type="line"/>
      <point x="-103" y="795" type="line" smooth="yes"/>
      <point x="-103" y="771"/>
      <point x="-110.333" y="744.333"/>
      <point x="-121" y="727" type="curve"/>
    </contour>
    <contour>
      <point x="-48" y="795" type="line"/>
      <point x="-48" y="802" type="line"/>
      <point x="-29" y="842"/>
      <point x="-4" y="862"/>
      <point x="27" y="862" type="curve" smooth="yes"/>
      <point x="56" y="862"/>
      <point x="71" y="847"/>
      <point x="71" y="816" type="curve" smooth="yes"/>
      <point x="71" y="795" type="line"/>
    </contour>
  </outline>
</glyph>
<glyph name="rehHahabove-ar" format="2">
  <unicode hex="0612"/>
  <note>
uni0612
</note>
  <anchor x="0" y="605" name="_top"/>
  <anchor x="0" y="605" name="_top2"/>
  <anchor x="-15" y="881" name="top"/>
  <outline>
    <contour>
      <point x="-159" y="605" type="curve"/>
      <point x="-109" y="629" type="line"/>
      <point x="-111" y="635"/>
      <point x="-112" y="639"/>
      <point x="-112" y="646" type="curve" smooth="yes"/>
      <point x="-112" y="684"/>
      <point x="-72.946" y="700.374"/>
      <point x="-9" y="717" type="curve"/>
      <point x="-0.333" y="704.333"/>
      <point x="10" y="693.667"/>
      <point x="22" y="685" type="curve"/>
      <point x="51" y="722" type="line"/>
      <point x="25.667" y="740.667"/>
      <point x="17.667" y="762.667"/>
      <point x="11" y="804" type="curve" smooth="yes"/>
      <point x="3" y="852.667"/>
      <point x="-26.333" y="877"/>
      <point x="-77" y="877" type="curve" smooth="yes"/>
      <point x="-111.667" y="877"/>
      <point x="-144.667" y="866.667"/>
      <point x="-166" y="856" type="curve"/>
      <point x="-145" y="814" type="line"/>
      <point x="-123" y="825.333"/>
      <point x="-104.333" y="831"/>
      <point x="-89" y="831" type="curve" smooth="yes"/>
      <point x="-63" y="831"/>
      <point x="-46" y="816.333"/>
      <point x="-38" y="787" type="curve" smooth="yes"/>
      <point x="-33.333" y="771"/>
      <point x="-30" y="760.667"/>
      <point x="-28" y="756" type="curve"/>
      <point x="-130.667" y="726.667"/>
      <point x="-167" y="692"/>
      <point x="-167" y="640" type="curve" smooth="yes"/>
      <point x="-167" y="628"/>
      <point x="-164.333" y="616.333"/>
    </contour>
    <contour>
      <point x="59" y="602" type="curve" smooth="yes"/>
      <point x="107" y="602"/>
      <point x="138" y="636.333"/>
      <point x="138" y="687" type="curve" smooth="yes"/>
      <point x="138" y="881" type="line"/>
      <point x="81" y="866" type="line"/>
      <point x="81" y="690" type="line" smooth="yes"/>
      <point x="81" y="663.333"/>
      <point x="66.667" y="649"/>
      <point x="48" y="649" type="curve" smooth="yes"/>
      <point x="34" y="649"/>
      <point x="22" y="652.667"/>
      <point x="12" y="660" type="curve"/>
      <point x="-11" y="623" type="line"/>
      <point x="6.333" y="611"/>
      <point x="24.333" y="602"/>
    </contour>
  </outline>
</glyph>
<glyph name="rehDadabove-ar" format="2">
  <unicode hex="0613"/>
  <note>
uni0613
</note>
  <anchor x="0" y="605" name="_top"/>
  <anchor x="0" y="605" name="_top2"/>
  <anchor x="-9" y="925" name="top"/>
  <outline>
    <contour>
      <point x="-140" y="646" type="line"/>
      <point x="-122" y="662.667"/>
      <point x="-108.333" y="680.667"/>
      <point x="-99" y="700" type="curve"/>
      <point x="67" y="700" type="line"/>
      <point x="67" y="759" type="line" smooth="yes"/>
      <point x="67" y="817.667"/>
      <point x="41.333" y="844"/>
      <point x="-12" y="844" type="curve" smooth="yes"/>
      <point x="-51.333" y="844"/>
      <point x="-80.333" y="824.333"/>
      <point x="-99" y="785" type="curve"/>
      <point x="-99" y="829" type="line"/>
      <point x="-147" y="815" type="line"/>
      <point x="-147" y="739" type="line" smooth="yes"/>
      <point x="-147" y="715.667"/>
      <point x="-153" y="693"/>
      <point x="-165" y="671" type="curve"/>
    </contour>
    <contour>
      <point x="-99" y="739" type="line"/>
      <point x="-99" y="746" type="line"/>
      <point x="-79" y="786"/>
      <point x="-54" y="806"/>
      <point x="-24" y="806" type="curve" smooth="yes"/>
      <point x="5.333" y="806"/>
      <point x="20" y="790.667"/>
      <point x="20" y="760" type="curve" smooth="yes"/>
      <point x="20" y="739" type="line"/>
    </contour>
    <contour>
      <point x="69" y="602" type="curve" smooth="yes"/>
      <point x="115.667" y="602"/>
      <point x="148" y="635"/>
      <point x="148" y="687" type="curve" smooth="yes"/>
      <point x="148" y="881" type="line"/>
      <point x="91" y="866" type="line"/>
      <point x="91" y="690" type="line" smooth="yes"/>
      <point x="91" y="663.333"/>
      <point x="76.667" y="649"/>
      <point x="58" y="649" type="curve" smooth="yes"/>
      <point x="44" y="649"/>
      <point x="32" y="652.667"/>
      <point x="22" y="660" type="curve"/>
      <point x="-1" y="623" type="line"/>
      <point x="17.667" y="611"/>
      <point x="34.333" y="602"/>
    </contour>
    <contour>
      <point x="-32" y="873" type="curve" smooth="yes"/>
      <point x="-17.333" y="873"/>
      <point x="-6" y="881.333"/>
      <point x="-6" y="900" type="curve" smooth="yes"/>
      <point x="-6" y="916.667"/>
      <point x="-14.667" y="925"/>
      <point x="-32" y="925" type="curve" smooth="yes"/>
      <point x="-48" y="925"/>
      <point x="-56" y="916.667"/>
      <point x="-56" y="900" type="curve" smooth="yes"/>
      <point x="-56" y="881.333"/>
      <point x="-44" y="873"/>
    </contour>
  </outline>
</glyph>
<glyph name="takhallusabove-ar" format="2">
  <unicode hex="0614"/>
  <note>
uni0614
</note>
  <anchor x="0" y="698" name="_top"/>
  <anchor x="0" y="698" name="_top2"/>
  <anchor x="-8" y="831" name="top"/>
  <outline>
    <contour>
      <point x="-133" y="685" type="line"/>
      <point x="-82.333" y="692.333"/>
      <point x="-47.167" y="699.167"/>
      <point x="-27.5" y="705.5" type="curve" smooth="yes"/>
      <point x="-7.833" y="711.833"/>
      <point x="6.667" y="721.333"/>
      <point x="16" y="734" type="curve"/>
      <point x="27.333" y="718"/>
      <point x="42.667" y="710"/>
      <point x="62" y="710" type="curve" smooth="yes"/>
      <point x="107.333" y="710"/>
      <point x="131" y="739"/>
      <point x="131" y="787" type="curve" smooth="yes"/>
      <point x="131" y="831" type="line"/>
      <point x="84" y="817" type="line"/>
      <point x="84" y="799" type="line" smooth="yes"/>
      <point x="84" y="767"/>
      <point x="78.333" y="755"/>
      <point x="61" y="755" type="curve" smooth="yes"/>
      <point x="45" y="755"/>
      <point x="37" y="766.667"/>
      <point x="37" y="790" type="curve" smooth="yes"/>
      <point x="37" y="820" type="line"/>
      <point x="-7" y="806" type="line"/>
      <point x="-7" y="786" type="line" smooth="yes"/>
      <point x="-7" y="770.667"/>
      <point x="-12.5" y="759"/>
      <point x="-23.5" y="751" type="curve" smooth="yes"/>
      <point x="-34.5" y="743"/>
      <point x="-60" y="735"/>
      <point x="-102" y="726" type="curve" smooth="yes"/>
      <point x="-116" y="723"/>
      <point x="-132" y="720"/>
      <point x="-147" y="716" type="curve"/>
    </contour>
  </outline>
</glyph>
<glyph name="question-ar" format="2">
  <advance width="530"/>
  <unicode hex="061F"/>
  <note>
uni061F
</note>
  <outline>
    <contour>
      <point x="239" y="266" type="curve" smooth="yes"/>
      <point x="239" y="237" type="line"/>
      <point x="368" y="237" type="line"/>
      <point x="368" y="273" type="line" smooth="yes"/>
      <point x="368" y="334.333"/>
      <point x="345.333" y="377.333"/>
      <point x="280" y="428" type="curve" smooth="yes"/>
      <point x="227.079" y="470.631"/>
      <point x="206" y="491.559"/>
      <point x="206" y="540" type="curve" smooth="yes"/>
      <point x="206" y="577.333"/>
      <point x="231.333" y="604"/>
      <point x="282" y="604" type="curve" smooth="yes"/>
      <point x="327.333" y="604"/>
      <point x="380.333" y="583"/>
      <point x="435" y="555" type="curve"/>
      <point x="485" y="663" type="line"/>
      <point x="421" y="700.333"/>
      <point x="344" y="724"/>
      <point x="280" y="724" type="curve" smooth="yes"/>
      <point x="145.333" y="724"/>
      <point x="65" y="656.333"/>
      <point x="65" y="547" type="curve" smooth="yes"/>
      <point x="65" y="476.333"/>
      <point x="89" y="432.667"/>
      <point x="173" y="366" type="curve" smooth="yes"/>
      <point x="226.333" y="324.667"/>
      <point x="239" y="307.333"/>
    </contour>
    <contour>
      <point x="298" y="-13" type="curve" smooth="yes"/>
      <point x="352.667" y="-13"/>
      <point x="384" y="16.667"/>
      <point x="384" y="70" type="curve" smooth="yes"/>
      <point x="384" y="124.667"/>
      <point x="352.667" y="153"/>
      <point x="298" y="153" type="curve" smooth="yes"/>
      <point x="243.333" y="153"/>
      <point x="213" y="123.333"/>
      <point x="213" y="70" type="curve" smooth="yes"/>
      <point x="213" y="18"/>
      <point x="244.667" y="-13"/>
    </contour>
  </outline>
</glyph>
<glyph name="ain-ar" format="2">
  <advance width="593"/>
  <unicode hex="0639"/>
  <note>
uni0639
</note>
  <anchor x="234" y="-381" name="bottom"/>
  <anchor x="293" y="586" name="top"/>
  <outline>
    <contour>
      <point x="293" y="-326" type="curve" smooth="yes"/>
      <point x="357.667" y="-326"/>
      <point x="422.333" y="-314.667"/>
      <point x="487" y="-292" type="curve"/>
      <point x="470" y="-183" type="line"/>
      <point x="416.667" y="-197"/>
      <point x="367.667" y="-204"/>
      <point x="323" y="-204" type="curve" smooth="yes"/>
      <point x="249.667" y="-204"/>
      <point x="211" y="-171"/>
      <point x="211" y="-115" type="curve" smooth="yes"/>
      <point x="211" y="-73"/>
      <point x="233.167" y="-36.167"/>
      <point x="277.5" y="-4.5" type="curve" smooth="yes"/>
      <point x="321.833" y="27.167"/>
      <point x="395" y="56"/>
      <point x="497" y="82" type="curve"/>
      <point x="462" y="195" type="line"/>
      <point x="404" y="176.333"/>
      <point x="346" y="154.333"/>
      <point x="288" y="129" type="curve"/>
      <point x="261.333" y="166.333"/>
      <point x="247" y="202"/>
      <point x="247" y="258" type="curve" smooth="yes"/>
      <point x="247" y="339.333"/>
      <point x="292" y="385"/>
      <point x="376" y="385" type="curve" smooth="yes"/>
      <point x="416" y="385"/>
      <point x="452.667" y="377.667"/>
      <point x="506" y="355" type="curve"/>
      <point x="548" y="472" type="line"/>
      <point x="510.667" y="489.333"/>
      <point x="438.667" y="505"/>
      <point x="380" y="505" type="curve" smooth="yes"/>
      <point x="209.333" y="505"/>
      <point x="104" y="413.333"/>
      <point x="104" y="267" type="curve" smooth="yes"/>
      <point x="104" y="204"/>
      <point x="145.333" y="122.667"/>
      <point x="192" y="76" type="curve"/>
      <point x="107.333" y="18"/>
      <point x="65" y="-48.333"/>
      <point x="65" y="-123" type="curve" smooth="yes"/>
      <point x="65" y="-244.333"/>
      <point x="155.667" y="-326"/>
    </contour>
  </outline>
</glyph>
<glyph name="meem-ar" format="2">
  <advance width="715"/>
  <unicode hex="0645"/>
  <note>
uni0645
</note>
  <anchor x="400" y="-78" name="bottom"/>
  <anchor x="342" y="566" name="top"/>
  <outline>
    <contour>
      <point x="65" y="-28" type="curve" smooth="yes"/>
      <point x="65" y="-320" type="line"/>
      <point x="214" y="-320" type="line"/>
      <point x="214" y="-77" type="line" smooth="yes"/>
      <point x="214" y="-22.333"/>
      <point x="235" y="0"/>
      <point x="295" y="0" type="curve" smooth="yes"/>
      <point x="387" y="0" type="line" smooth="yes"/>
      <point x="488.333" y="0"/>
      <point x="577.167" y="45.333"/>
      <point x="624.5" y="124" type="curve" smooth="yes"/>
      <point x="648.167" y="163.333"/>
      <point x="660" y="208.333"/>
      <point x="660" y="259" type="curve" smooth="yes"/>
      <point x="660" y="352.333"/>
      <point x="616.667" y="427.333"/>
      <point x="542" y="466" type="curve" smooth="yes"/>
      <point x="504.667" y="485.333"/>
      <point x="463.333" y="495"/>
      <point x="418" y="495" type="curve" smooth="yes"/>
      <point x="360.667" y="495"/>
      <point x="280" y="472.667"/>
      <point x="220" y="438" type="curve"/>
      <point x="192" y="392.667"/>
      <point x="169" y="316.667"/>
      <point x="169" y="258" type="curve" smooth="yes"/>
      <point x="169" y="208"/>
      <point x="178" y="161.667"/>
      <point x="196" y="119" type="curve"/>
      <point x="112" y="113.667"/>
      <point x="65" y="60"/>
    </contour>
    <contour>
      <point x="307" y="237" type="curve" smooth="yes"/>
      <point x="307" y="275"/>
      <point x="312" y="311.667"/>
      <point x="322" y="347" type="curve"/>
      <point x="354" y="365.667"/>
      <point x="385" y="375"/>
      <point x="415" y="375" type="curve" smooth="yes"/>
      <point x="472.333" y="375"/>
      <point x="510" y="331"/>
      <point x="510" y="259" type="curve" smooth="yes"/>
      <point x="510" y="181.667"/>
      <point x="448" y="120"/>
      <point x="368" y="120" type="curve" smooth="yes"/>
      <point x="330" y="120" type="line"/>
      <point x="314.667" y="164"/>
      <point x="307" y="203"/>
    </contour>
  </outline>
</glyph>
<glyph name="alefMaksura-ar" format="2">
  <advance width="883"/>
  <unicode hex="0649"/>
  <note>
uni0649
</note>
  <anchor x="391" y="-322" name="bottom"/>
  <anchor x="225" y="322" name="top"/>
  <outline>
    <contour>
      <point x="266" y="-240" type="curve" smooth="yes"/>
      <point x="502" y="-240" type="line" smooth="yes"/>
      <point x="694" y="-240"/>
      <point x="799" y="-179.667"/>
      <point x="799" y="-57" type="curve" smooth="yes"/>
      <point x="799" y="-14.333"/>
      <point x="769.833" y="30.667"/>
      <point x="710.5" y="80" type="curve" smooth="yes"/>
      <point x="680.833" y="104.667"/>
      <point x="652.333" y="125.667"/>
      <point x="625" y="143" type="curve" smooth="yes"/>
      <point x="589" y="166"/>
      <point x="536" y="201"/>
      <point x="536" y="228" type="curve" smooth="yes"/>
      <point x="536" y="261.333"/>
      <point x="577.5" y="309.667"/>
      <point x="635.5" y="347" type="curve" smooth="yes"/>
      <point x="664.5" y="365.667"/>
      <point x="687.667" y="375"/>
      <point x="705" y="375" type="curve" smooth="yes"/>
      <point x="733" y="375"/>
      <point x="757.333" y="362.667"/>
      <point x="784" y="348" type="curve"/>
      <point x="838" y="457" type="line"/>
      <point x="778" y="495.667"/>
      <point x="753" y="504"/>
      <point x="721" y="504" type="curve" smooth="yes"/>
      <point x="630.333" y="504"/>
      <point x="522.667" y="437"/>
      <point x="452" y="337" type="curve" smooth="yes"/>
      <point x="416.667" y="287"/>
      <point x="399" y="242.333"/>
      <point x="399" y="203" type="curve" smooth="yes"/>
      <point x="399" y="157.667"/>
      <point x="421.833" y="125.333"/>
      <point x="494.5" y="76" type="curve" smooth="yes"/>
      <point x="530.833" y="51.333"/>
      <point x="563" y="30.333"/>
      <point x="591" y="13" type="curve" smooth="yes"/>
      <point x="633.667" y="-13.667"/>
      <point x="650" y="-33.333"/>
      <point x="650" y="-60" type="curve" smooth="yes"/>
      <point x="650" y="-111"/>
      <point x="582" y="-120"/>
      <point x="501" y="-120" type="curve" smooth="yes"/>
      <point x="328" y="-120" type="line" smooth="yes"/>
      <point x="265.201" y="-120"/>
      <point x="209" y="-58.509"/>
      <point x="209" y="10" type="curve" smooth="yes"/>
      <point x="209" y="83.333"/>
      <point x="212.667" y="126.333"/>
      <point x="230" y="181" type="curve"/>
      <point x="97" y="181" type="line"/>
      <point x="75.667" y="117"/>
      <point x="65" y="52.667"/>
      <point x="65" y="-12" type="curve" smooth="yes"/>
      <point x="65" y="-140"/>
      <point x="144" y="-240"/>
    </contour>
  </outline>
</glyph>
<glyph name="dammatan-ar" format="2">
  <unicode hex="064C"/>
  <note>
uni064C
</note>
  <anchor x="-5" y="761" name="_top"/>
  <anchor x="0" y="771" name="_top2"/>
  <anchor x="6" y="1010" name="top"/>
  <outline>
    <contour>
      <point x="23" y="780" type="curve" smooth="yes"/>
      <point x="81.667" y="780"/>
      <point x="138.5" y="808.667"/>
      <point x="168.5" y="854" type="curve" smooth="yes"/>
      <point x="183.5" y="876.667"/>
      <point x="191" y="901.333"/>
      <point x="191" y="928" type="curve" smooth="yes"/>
      <point x="191" y="976"/>
      <point x="156.667" y="1010"/>
      <point x="102" y="1010" type="curve" smooth="yes"/>
      <point x="47.333" y="1010"/>
      <point x="9" y="976"/>
      <point x="9" y="924" type="curve" smooth="yes"/>
      <point x="9" y="896.667"/>
      <point x="19" y="868.667"/>
      <point x="39" y="840" type="curve"/>
      <point x="33.667" y="838.667"/>
      <point x="27" y="838"/>
      <point x="19" y="838" type="curve" smooth="yes"/>
      <point x="-17.667" y="838"/>
      <point x="-54.667" y="864"/>
      <point x="-92" y="916" type="curve"/>
      <point x="-179" y="839" type="line"/>
      <point x="-142" y="791" type="line"/>
      <point x="-98" y="828" type="line"/>
      <point x="-59.563" y="794.368"/>
      <point x="-25.231" y="780"/>
    </contour>
    <contour>
      <point x="93" y="860" type="curve"/>
      <point x="77" y="882"/>
      <point x="69" y="901.667"/>
      <point x="69" y="919" type="curve" smooth="yes"/>
      <point x="69" y="941.667"/>
      <point x="84" y="953"/>
      <point x="100" y="953" type="curve" smooth="yes"/>
      <point x="118.667" y="953"/>
      <point x="131" y="940.667"/>
      <point x="131" y="922" type="curve" smooth="yes"/>
      <point x="131" y="903.333"/>
      <point x="122.333" y="877.333"/>
    </contour>
  </outline>
</glyph>
<glyph name="fatha-ar" format="2">
  <unicode hex="064E"/>
  <note>
uni064E
</note>
  <anchor x="0" y="781" name="_top"/>
  <anchor x="0" y="781" name="_top2"/>
  <anchor x="0" y="928" name="top"/>
  <outline>
    <contour>
      <point x="-117" y="841" type="line"/>
      <point x="-117" y="776" type="line"/>
      <point x="117" y="864" type="line"/>
      <point x="117" y="928" type="line"/>
    </contour>
  </outline>
</glyph>
<glyph name="sukun-ar" format="2">
  <unicode hex="0652"/>
  <note>
uni0652
</note>
  <anchor x="0" y="811" name="_top"/>
  <anchor x="0" y="811" name="_top2"/>
  <anchor x="1" y="1026" name="top"/>
  <outline>
    <contour>
      <point x="-1" y="816" type="curve" smooth="yes"/>
      <point x="67" y="816"/>
      <point x="111" y="859.333"/>
      <point x="111" y="922" type="curve" smooth="yes"/>
      <point x="111" y="984.667"/>
      <point x="64.333" y="1026"/>
      <point x="-1" y="1026" type="curve" smooth="yes"/>
      <point x="-67.667" y="1026"/>
      <point x="-110" y="985"/>
      <point x="-110" y="921" type="curve" smooth="yes"/>
      <point x="-110" y="857"/>
      <point x="-67.667" y="816"/>
    </contour>
    <contour>
      <point x="-1" y="877" type="curve" smooth="yes"/>
      <point x="-30.333" y="877"/>
      <point x="-45" y="893"/>
      <point x="-45" y="921" type="curve" smooth="yes"/>
      <point x="-45" y="947.667"/>
      <point x="-27.667" y="965"/>
      <point x="-1" y="965" type="curve" smooth="yes"/>
      <point x="25.667" y="965"/>
      <point x="43" y="947.667"/>
      <point x="43" y="921" type="curve" smooth="yes"/>
      <point x="43" y="893"/>
      <point x="25.667" y="877"/>
    </contour>
  </outline>
</glyph>
<glyph name="madda-ar" format="2">
  <unicode hex="0653"/>
  <note>
uni0653
</note>
  <anchor x="0" y="762" name="_top"/>
  <anchor x="0" y="762" name="_top2"/>
  <anchor x="18" y="892" name="top"/>
  <outline>
    <contour>
      <point x="-158" y="762" type="curve"/>
      <point x="-107" y="762" type="line"/>
      <point x="-97.667" y="802"/>
      <point x="-84.333" y="818"/>
      <point x="-55" y="818" type="curve" smooth="yes"/>
      <point x="-12.301" y="818"/>
      <point x="39.585" y="763"/>
      <point x="90" y="763" type="curve" smooth="yes"/>
      <point x="148.667" y="763"/>
      <point x="186.333" y="812"/>
      <point x="193" y="892" type="curve"/>
      <point x="142" y="892" type="line"/>
      <point x="131.333" y="852"/>
      <point x="119.333" y="836"/>
      <point x="90" y="836" type="curve" smooth="yes"/>
      <point x="50.758" y="836"/>
      <point x="-4.115" y="891"/>
      <point x="-55" y="891" type="curve" smooth="yes"/>
      <point x="-111" y="891"/>
      <point x="-150" y="846"/>
    </contour>
  </outline>
</glyph>
<glyph name="hamzaabove-ar" format="2">
  <unicode hex="0654"/>
  <note>
uni0654
</note>
  <anchor x="0" y="762" name="_top"/>
  <anchor x="0" y="749" name="_top2"/>
  <anchor x="7" y="983" name="top"/>
  <outline>
    <contour>
      <point x="-99" y="815" type="line"/>
      <point x="-99" y="764" type="line"/>
      <point x="-84.333" y="768"/>
      <point x="64" y="786.333"/>
      <point x="112" y="789" type="curve"/>
      <point x="112" y="847" type="line"/>
      <point x="92" y="845.667"/>
      <point x="65" y="842.333"/>
      <point x="31" y="837" type="curve" smooth="yes"/>
      <point x="13" y="834" type="line"/>
      <point x="-4.333" y="842"/>
      <point x="-17" y="857.667"/>
      <point x="-17" y="879" type="curve" smooth="yes"/>
      <point x="-17" y="908.333"/>
      <point x="1.667" y="927"/>
      <point x="31" y="927" type="curve" smooth="yes"/>
      <point x="50.333" y="927"/>
      <point x="68.333" y="922.667"/>
      <point x="85" y="914" type="curve"/>
      <point x="105" y="965" type="line"/>
      <point x="83" y="977"/>
      <point x="55.667" y="983"/>
      <point x="23" y="983" type="curve" smooth="yes"/>
      <point x="-43.667" y="983"/>
      <point x="-87" y="949.333"/>
      <point x="-87" y="892" type="curve" smooth="yes"/>
      <point x="-87" y="861.333"/>
      <point x="-68.667" y="837.333"/>
      <point x="-42" y="824" type="curve"/>
    </contour>
  </outline>
</glyph>
<glyph name="dammainverted-ar" format="2">
  <unicode hex="0657"/>
  <note>
uni0657
</note>
  <anchor x="0" y="625" name="_top"/>
  <anchor x="0" y="625" name="_top2"/>
  <anchor x="10" y="826" name="top"/>
  <outline>
    <contour>
      <point x="55" y="826" type="line"/>
      <point x="-30.333" y="776.667"/>
      <point x="-56" y="738"/>
      <point x="-56" y="686" type="curve" smooth="yes"/>
      <point x="-56" y="651.333"/>
      <point x="-36.333" y="625"/>
      <point x="-7" y="625" type="curve" smooth="yes"/>
      <point x="25" y="625"/>
      <point x="55" y="652"/>
      <point x="55" y="684" type="curve" smooth="yes"/>
      <point x="55" y="709.333"/>
      <point x="32.667" y="734.667"/>
      <point x="2" y="744" type="curve"/>
      <point x="21.333" y="763.333"/>
      <point x="45.667" y="780.667"/>
      <point x="75" y="796" type="curve"/>
    </contour>
    <contour>
      <point x="-17" y="714" type="curve"/>
      <point x="4.381" y="705.448"/>
      <point x="18" y="697.378"/>
      <point x="18" y="683" type="curve" smooth="yes"/>
      <point x="18" y="671"/>
      <point x="6.333" y="663"/>
      <point x="-3" y="663" type="curve" smooth="yes"/>
      <point x="-16.333" y="663"/>
      <point x="-23" y="671.333"/>
      <point x="-23" y="688" type="curve" smooth="yes"/>
      <point x="-23" y="698.667"/>
      <point x="-21" y="707.333"/>
    </contour>
  </outline>
</glyph>
<glyph name="noonghunnaabove-ar" format="2">
  <unicode hex="0658"/>
  <note>
uni0658
</note>
  <anchor x="0" y="625" name="_top"/>
  <anchor x="0" y="625" name="_top2"/>
  <anchor x="-5" y="754" name="top"/>
  <outline>
    <contour>
      <point x="60" y="754" type="curve"/>
      <point x="26" y="753" type="line"/>
      <point x="26" y="729"/>
      <point x="23.333" y="711.833"/>
      <point x="18" y="701.5" type="curve" smooth="yes"/>
      <point x="12.667" y="691.167"/>
      <point x="4.667" y="686"/>
      <point x="-6" y="686" type="curve" smooth="yes"/>
      <point x="-28" y="686"/>
      <point x="-39" y="701.667"/>
      <point x="-39" y="733" type="curve"/>
      <point x="-70" y="733" type="line"/>
      <point x="-70" y="672.333"/>
      <point x="-48.667" y="642"/>
      <point x="-6" y="642" type="curve" smooth="yes"/>
      <point x="36.667" y="642"/>
      <point x="60" y="680.667"/>
    </contour>
  </outline>
</glyph>
<glyph name="fathaHorizont-ar" format="2">
  <unicode hex="0659"/>
  <note>
uni0659
</note>
  <anchor x="0" y="625" name="_top"/>
  <anchor x="0" y="625" name="_top2"/>
  <anchor x="14" y="749" name="top"/>
  <outline>
    <contour>
      <point x="154" y="749" type="line"/>
      <point x="-71" y="749" type="line"/>
      <point x="-126" y="630" type="line"/>
      <point x="94" y="630" type="line"/>
    </contour>
  </outline>
</glyph>
<glyph name="dammareversed-ar" format="2">
  <unicode hex="065D"/>
  <note>
uni065D
</note>
  <anchor x="0" y="586" name="_top"/>
  <anchor x="0" y="586" name="_top2"/>
  <anchor x="3" y="815" name="top"/>
  <outline>
    <contour>
      <point x="46" y="585" type="curve" smooth="yes"/>
      <point x="84.667" y="585"/>
      <point x="120.333" y="597"/>
      <point x="153" y="621" type="curve"/>
      <point x="119" y="670" type="line"/>
      <point x="91" y="652"/>
      <point x="67.333" y="643"/>
      <point x="48" y="643" type="curve" smooth="yes"/>
      <point x="31.333" y="643"/>
      <point x="17.667" y="644.667"/>
      <point x="7" y="648" type="curve"/>
      <point x="25.667" y="676"/>
      <point x="35" y="703"/>
      <point x="35" y="729" type="curve" smooth="yes"/>
      <point x="35" y="781"/>
      <point x="-3.333" y="815"/>
      <point x="-58" y="815" type="curve" smooth="yes"/>
      <point x="-110" y="815"/>
      <point x="-147" y="782.333"/>
      <point x="-147" y="733" type="curve" smooth="yes"/>
      <point x="-147" y="683.667"/>
      <point x="-109" y="632.833"/>
      <point x="-49" y="605.5" type="curve" smooth="yes"/>
      <point x="-19" y="591.833"/>
      <point x="12.667" y="585"/>
    </contour>
    <contour>
      <point x="-46" y="668" type="curve"/>
      <point x="-74" y="685.333"/>
      <point x="-86" y="709"/>
      <point x="-86" y="729" type="curve" smooth="yes"/>
      <point x="-86" y="746.333"/>
      <point x="-73.333" y="758"/>
      <point x="-56" y="758" type="curve" smooth="yes"/>
      <point x="-38.667" y="758"/>
      <point x="-24" y="746.667"/>
      <point x="-24" y="724" type="curve" smooth="yes"/>
      <point x="-24" y="708"/>
      <point x="-31.333" y="689.333"/>
    </contour>
  </outline>
</glyph>
<glyph name="wavyhamza_below" format="2">
  <unicode hex="065F"/>
  <note>
wavyhamza_below
</note>
  <outline>
    <contour>
      <point x="97" y="-239" type="curve"/>
      <point x="97" y="-181" type="line"/>
      <point x="82.333" y="-186.333"/>
      <point x="14" y="-195.667"/>
      <point x="-2" y="-197" type="curve"/>
      <point x="-19.333" y="-189"/>
      <point x="-32" y="-172"/>
      <point x="-32" y="-152" type="curve" smooth="yes"/>
      <point x="-32" y="-124"/>
      <point x="-13.333" y="-104"/>
      <point x="16" y="-104" type="curve" smooth="yes"/>
      <point x="36" y="-104"/>
      <point x="54" y="-108.333"/>
      <point x="70" y="-117" type="curve"/>
      <point x="90" y="-66" type="line"/>
      <point x="66.667" y="-54"/>
      <point x="39.333" y="-48"/>
      <point x="8" y="-48" type="curve" smooth="yes"/>
      <point x="-60" y="-48"/>
      <point x="-102" y="-83"/>
      <point x="-102" y="-139" type="curve" smooth="yes"/>
      <point x="-102" y="-171"/>
      <point x="-83.667" y="-193.667"/>
      <point x="-57" y="-207" type="curve"/>
      <point x="-63.667" y="-207"/>
      <point x="-73.667" y="-204"/>
      <point x="-87" y="-198" type="curve" smooth="yes"/>
      <point x="-100.333" y="-192.667"/>
      <point x="-112.333" y="-190"/>
      <point x="-123" y="-190" type="curve" smooth="yes"/>
      <point x="-132" y="-190"/>
      <point x="-142" y="-194"/>
      <point x="-154" y="-203" type="curve" smooth="yes"/>
      <point x="-165" y="-212"/>
      <point x="-178" y="-225"/>
      <point x="-192" y="-242" type="curve"/>
      <point x="-165" y="-270" type="line"/>
      <point x="-147.667" y="-254.667"/>
      <point x="-132" y="-247"/>
      <point x="-119" y="-247" type="curve" smooth="yes"/>
      <point x="-110" y="-247"/>
      <point x="-103" y="-249"/>
      <point x="-92" y="-252" type="curve" smooth="yes"/>
      <point x="-80" y="-255"/>
      <point x="-64" y="-259"/>
      <point x="-45" y="-259" type="curve" smooth="yes"/>
      <point x="-9" y="-259"/>
      <point x="39.667" y="-252.333"/>
    </contour>
  </outline>
</glyph>
<glyph name="five-ar" format="2">
  <advance width="627"/>
  <unicode hex="0665"/>
  <note>
uni0665
</note>
  <outline>
    <contour>
      <point x="312" y="-10" type="curve" smooth="yes"/>
      <point x="433.333" y="-10"/>
      <point x="500.167" y="25"/>
      <point x="535.5" y="105" type="curve" smooth="yes"/>
      <point x="553.167" y="145"/>
      <point x="562" y="196.667"/>
      <point x="562" y="260" type="curve" smooth="yes"/>
      <point x="562" y="412"/>
      <point x="511.5" y="555.833"/>
      <point x="437.5" y="628.5" type="curve" smooth="yes"/>
      <point x="400.5" y="664.833"/>
      <point x="359.667" y="683"/>
      <point x="315" y="683" type="curve" smooth="yes"/>
      <point x="223" y="683"/>
      <point x="143.167" y="603.333"/>
      <point x="98.5" y="470" type="curve" smooth="yes"/>
      <point x="76.167" y="403.333"/>
      <point x="65" y="333.333"/>
      <point x="65" y="260" type="curve" smooth="yes"/>
      <point x="65" y="78.667"/>
      <point x="140" y="-10"/>
    </contour>
    <contour>
      <point x="311" y="112" type="curve" smooth="yes"/>
      <point x="243.667" y="112"/>
      <point x="210" y="162.333"/>
      <point x="210" y="263" type="curve" smooth="yes"/>
      <point x="210" y="369.667"/>
      <point x="230.333" y="469.667"/>
      <point x="261" y="523" type="curve" smooth="yes"/>
      <point x="276.333" y="549.667"/>
      <point x="292.667" y="563"/>
      <point x="310" y="563" type="curve" smooth="yes"/>
      <point x="339.333" y="563"/>
      <point x="363.5" y="534.167"/>
      <point x="382.5" y="476.5" type="curve" smooth="yes"/>
      <point x="401.5" y="418.833"/>
      <point x="411" y="348"/>
      <point x="411" y="264" type="curve" smooth="yes"/>
      <point x="411" y="162.667"/>
      <point x="377.667" y="112"/>
    </contour>
  </outline>
</glyph>
<glyph name="eight-ar" format="2">
  <advance width="579"/>
  <unicode hex="0668"/>
  <note>
uni0668
</note>
  <outline>
    <contour>
      <point x="213" y="674" type="line"/>
      <point x="20" y="0" type="line"/>
      <point x="176" y="0" type="line"/>
      <point x="266" y="379" type="line" smooth="yes"/>
      <point x="277.333" y="434.333"/>
      <point x="284.667" y="481.667"/>
      <point x="288" y="521" type="curve"/>
      <point x="291" y="521" type="line"/>
      <point x="292.333" y="490.333"/>
      <point x="306.333" y="407"/>
      <point x="313" y="379" type="curve" smooth="yes"/>
      <point x="403" y="0" type="line"/>
      <point x="559" y="0" type="line"/>
      <point x="366" y="674" type="line"/>
    </contour>
  </outline>
</glyph>
<glyph name="thousandseparator-ar" format="2">
  <advance width="323"/>
  <unicode hex="066C"/>
  <note>
uni066C
</note>
  <outline>
    <contour>
      <point x="65" y="140" type="curve"/>
      <point x="172" y="140" type="line"/>
      <point x="212" y="230"/>
      <point x="240.667" y="308"/>
      <point x="258" y="374" type="curve"/>
      <point x="251" y="385" type="line"/>
      <point x="114" y="385" type="line"/>
      <point x="102" y="305.667"/>
      <point x="85.667" y="224"/>
    </contour>
  </outline>
</glyph>
<glyph name="keheh-ar" format="2">
  <advance width="887"/>
  <unicode hex="06A9"/>
  <note>
uni06A9
</note>
  <anchor x="391" y="-78" name="bottom"/>
  <anchor x="342" y="732" name="top"/>
  <outline>
    <contour>
      <point x="264" y="0" type="curve" smooth="yes"/>
      <point x="812" y="0" type="line"/>
      <point x="812" y="300" type="line" smooth="yes"/>
      <point x="812" y="450.667"/>
      <point x="717" y="526"/>
      <point x="527" y="526" type="curve" smooth="yes"/>
      <point x="489" y="526" type="line"/>
      <point x="534.333" y="596.667"/>
      <point x="647.333" y="673.333"/>
      <point x="762" y="708" type="curve"/>
      <point x="707" y="842" type="line"/>
      <point x="537.667" y="780.667"/>
      <point x="404.667" y="663.333"/>
      <point x="334" y="514" type="curve"/>
      <point x="334" y="406" type="line"/>
      <point x="504" y="406" type="line" smooth="yes"/>
      <point x="605.333" y="406"/>
      <point x="663" y="361"/>
      <point x="663" y="281" type="curve" smooth="yes"/>
      <point x="663" y="120" type="line"/>
      <point x="308" y="120" type="line" smooth="yes"/>
      <point x="250.667" y="120"/>
      <point x="214" y="159"/>
      <point x="214" y="223" type="curve" smooth="yes"/>
      <point x="214" y="257"/>
      <point x="219" y="300.667"/>
      <point x="229" y="354" type="curve"/>
      <point x="97" y="354" type="line"/>
      <point x="75.667" y="304.667"/>
      <point x="65" y="253.667"/>
      <point x="65" y="201" type="curve" smooth="yes"/>
      <point x="65" y="75.667"/>
      <point x="140" y="0"/>
    </contour>
  </outline>
</glyph>
<glyph name="yehTail-ar" format="2">
  <advance width="1000"/>
  <unicode hex="06CD"/>
  <note>
uni06CD
</note>
  <anchor x="537" y="-322" name="bottom"/>
  <anchor x="225" y="371" name="top"/>
  <outline>
    <contour>
      <point x="354" y="204" type="curve"/>
      <point x="294" y="311" type="line"/>
      <point x="-20" y="179" type="line"/>
      <point x="12" y="96" type="line"/>
      <point x="212" y="156" type="line"/>
      <point x="189.333" y="100"/>
      <point x="182" y="62.667"/>
      <point x="182" y="-12" type="curve" smooth="yes"/>
      <point x="182" y="-139"/>
      <point x="260" y="-240"/>
      <point x="383" y="-240" type="curve" smooth="yes"/>
      <point x="619" y="-240" type="line" smooth="yes"/>
      <point x="811" y="-240"/>
      <point x="916" y="-179.667"/>
      <point x="916" y="-57" type="curve" smooth="yes"/>
      <point x="916" y="-14.333"/>
      <point x="888.667" y="29.833"/>
      <point x="830" y="78.5" type="curve" smooth="yes"/>
      <point x="800.667" y="102.833"/>
      <point x="775.667" y="121.333"/>
      <point x="755" y="134" type="curve" smooth="yes"/>
      <point x="708" y="165"/>
      <point x="653" y="200"/>
      <point x="653" y="228" type="curve" smooth="yes"/>
      <point x="653" y="281.758"/>
      <point x="768.845" y="375"/>
      <point x="822" y="375" type="curve" smooth="yes"/>
      <point x="843.333" y="375"/>
      <point x="869.667" y="366"/>
      <point x="901" y="348" type="curve"/>
      <point x="955" y="457" type="line"/>
      <point x="895" y="495.667"/>
      <point x="870" y="504"/>
      <point x="838" y="504" type="curve" smooth="yes"/>
      <point x="748.667" y="504"/>
      <point x="639.667" y="437"/>
      <point x="569" y="337" type="curve" smooth="yes"/>
      <point x="533.667" y="287"/>
      <point x="516" y="242.333"/>
      <point x="516" y="203" type="curve" smooth="yes"/>
      <point x="516" y="157.667"/>
      <point x="540.333" y="124.667"/>
      <point x="615" y="74" type="curve" smooth="yes"/>
      <point x="652.333" y="48.667"/>
      <point x="683.333" y="28.333"/>
      <point x="708" y="13" type="curve" smooth="yes"/>
      <point x="750.667" y="-13.667"/>
      <point x="767" y="-33.333"/>
      <point x="767" y="-60" type="curve" smooth="yes"/>
      <point x="767" y="-111"/>
      <point x="699" y="-120"/>
      <point x="618" y="-120" type="curve" smooth="yes"/>
      <point x="445" y="-120" type="line" smooth="yes"/>
      <point x="381" y="-120"/>
      <point x="326" y="-59.333"/>
      <point x="326" y="10" type="curve" smooth="yes"/>
      <point x="326" y="60.667"/>
      <point x="338" y="141.333"/>
    </contour>
  </outline>
</glyph>
<glyph name="yehbarree-ar" format="2">
  <advance width="577"/>
  <unicode hex="06D2"/>
  <note>
uni06D2
</note>
  <anchor x="391" y="-323" name="bottom"/>
  <anchor x="342" y="391" name="top"/>
  <outline>
    <contour>
      <point x="256" y="-240" type="curve" smooth="yes"/>
      <point x="722" y="-240" type="line"/>
      <point x="722" y="-120" type="line"/>
      <point x="254" y="-120" type="line" smooth="yes"/>
      <point x="214" y="-120"/>
      <point x="194" y="-105"/>
      <point x="194" y="-75" type="curve" smooth="yes"/>
      <point x="194" y="-48.333"/>
      <point x="208" y="-30.167"/>
      <point x="248" y="-9.5" type="curve" smooth="yes"/>
      <point x="268" y="0.833"/>
      <point x="306" y="17"/>
      <point x="362" y="39" type="curve" smooth="yes"/>
      <point x="462" y="76.333"/>
      <point x="507.333" y="113.167"/>
      <point x="530" y="168.5" type="curve" smooth="yes"/>
      <point x="541.333" y="196.167"/>
      <point x="547" y="231.667"/>
      <point x="547" y="275" type="curve" smooth="yes"/>
      <point x="547" y="315" type="line"/>
      <point x="398" y="315" type="line"/>
      <point x="398" y="278" type="line" smooth="yes"/>
      <point x="398" y="220.667"/>
      <point x="385.167" y="193.333"/>
      <point x="348.5" y="168" type="curve" smooth="yes"/>
      <point x="330.167" y="155.333"/>
      <point x="296" y="138.667"/>
      <point x="246" y="118" type="curve" smooth="yes"/>
      <point x="128.667" y="70"/>
      <point x="88.167" y="39.833"/>
      <point x="63.5" y="-3.5" type="curve" smooth="yes"/>
      <point x="51.167" y="-25.167"/>
      <point x="45" y="-50.667"/>
      <point x="45" y="-80" type="curve" smooth="yes"/>
      <point x="45" y="-181.333"/>
      <point x="121.333" y="-240"/>
    </contour>
  </outline>
</glyph>
<glyph name="sadLamAlefMaksuraabove-ar" format="2">
  <unicode hex="06D6"/>
  <note>
uni06D6
</note>
  <anchor x="39" y="479" name="_top"/>
  <anchor x="39" y="479" name="_top2"/>
  <anchor x="25" y="869" name="top"/>
  <outline>
    <contour>
      <point x="-147" y="580" type="curve" smooth="yes"/>
      <point x="298" y="580" type="line"/>
      <point x="298" y="654" type="line" smooth="yes"/>
      <point x="298" y="726"/>
      <point x="265.667" y="760"/>
      <point x="199" y="760" type="curve" smooth="yes"/>
      <point x="150.333" y="760"/>
      <point x="114.333" y="735.333"/>
      <point x="91" y="686" type="curve"/>
      <point x="91" y="741" type="line"/>
      <point x="31" y="741" type="line"/>
      <point x="31" y="628" type="line"/>
      <point x="-14" y="628" type="line"/>
      <point x="-14" y="869" type="line"/>
      <point x="-74" y="869" type="line"/>
      <point x="-74" y="628" type="line"/>
      <point x="-149" y="628" type="line" smooth="yes"/>
      <point x="-203.667" y="628"/>
      <point x="-249" y="596.333"/>
      <point x="-249" y="551" type="curve" smooth="yes"/>
      <point x="-249" y="511"/>
      <point x="-220.333" y="484"/>
      <point x="-179" y="484" type="curve" smooth="yes"/>
      <point x="75" y="484" type="line"/>
      <point x="75" y="532" type="line"/>
      <point x="-164" y="532" type="line" smooth="yes"/>
      <point x="-181.333" y="532"/>
      <point x="-190" y="538.667"/>
      <point x="-190" y="552" type="curve" smooth="yes"/>
      <point x="-190" y="568"/>
      <point x="-175" y="580"/>
    </contour>
    <contour>
      <point x="239" y="628" type="line"/>
      <point x="91" y="628" type="line"/>
      <point x="91" y="637" type="line"/>
      <point x="115.667" y="687"/>
      <point x="146.667" y="712"/>
      <point x="184" y="712" type="curve" smooth="yes"/>
      <point x="220.667" y="712"/>
      <point x="239" y="693"/>
      <point x="239" y="655" type="curve" smooth="yes"/>
    </contour>
  </outline>
</glyph>
<glyph name="qafLamAlefMaksuraabove-ar" format="2">
  <unicode hex="06D7"/>
  <note>
uni06D7
</note>
  <anchor x="20" y="479" name="_top"/>
  <anchor x="20" y="479" name="_top2"/>
  <anchor x="-11" y="870" name="top"/>
  <outline>
    <contour>
      <point x="58" y="628" type="curve"/>
      <point x="-14" y="628" type="line"/>
      <point x="-14" y="869" type="line"/>
      <point x="-74" y="869" type="line"/>
      <point x="-74" y="628" type="line"/>
      <point x="-149" y="628" type="line" smooth="yes"/>
      <point x="-203.667" y="628"/>
      <point x="-249" y="596.333"/>
      <point x="-249" y="551" type="curve" smooth="yes"/>
      <point x="-249" y="511"/>
      <point x="-220.333" y="484"/>
      <point x="-179" y="484" type="curve" smooth="yes"/>
      <point x="75" y="484" type="line"/>
      <point x="75" y="532" type="line"/>
      <point x="-164" y="532" type="line" smooth="yes"/>
      <point x="-181.333" y="532"/>
      <point x="-190" y="538.667"/>
      <point x="-190" y="552" type="curve" smooth="yes"/>
      <point x="-190" y="568"/>
      <point x="-175" y="580"/>
      <point x="-147" y="580" type="curve" smooth="yes"/>
      <point x="227" y="580" type="line"/>
      <point x="227" y="778" type="line"/>
      <point x="156" y="778" type="line" smooth="yes"/>
      <point x="82.667" y="778"/>
      <point x="39" y="741"/>
      <point x="39" y="681" type="curve" smooth="yes"/>
      <point x="39" y="661.667"/>
      <point x="45.333" y="644"/>
    </contour>
    <contour>
      <point x="167" y="628" type="line"/>
      <point x="156" y="628" type="line" smooth="yes"/>
      <point x="120" y="628"/>
      <point x="100" y="646"/>
      <point x="100" y="678" type="curve" smooth="yes"/>
      <point x="100" y="711.333"/>
      <point x="121" y="730"/>
      <point x="157" y="730" type="curve" smooth="yes"/>
      <point x="167" y="730" type="line"/>
    </contour>
    <contour>
      <point x="117" y="813" type="curve" smooth="yes"/>
      <point x="130.333" y="813"/>
      <point x="143" y="822"/>
      <point x="143" y="842" type="curve" smooth="yes"/>
      <point x="143" y="862"/>
      <point x="130.333" y="870"/>
      <point x="117" y="870" type="curve" smooth="yes"/>
      <point x="102.333" y="870"/>
      <point x="90" y="862"/>
      <point x="90" y="842" type="curve" smooth="yes"/>
      <point x="90" y="822"/>
      <point x="102.333" y="813"/>
    </contour>
    <contour>
      <point x="185" y="813" type="curve" smooth="yes"/>
      <point x="199.667" y="813"/>
      <point x="211" y="822"/>
      <point x="211" y="842" type="curve" smooth="yes"/>
      <point x="211" y="860.667"/>
      <point x="202.333" y="870"/>
      <point x="185" y="870" type="curve" smooth="yes"/>
      <point x="167" y="870"/>
      <point x="158" y="860.667"/>
      <point x="158" y="842" type="curve" smooth="yes"/>
      <point x="158" y="822"/>
      <point x="170.333" y="813"/>
    </contour>
  </outline>
</glyph>
<glyph name="meemabove-ar" format="2">
  <unicode hex="06D8"/>
  <note>
uni06D8
</note>
  <anchor x="0" y="479" name="_top"/>
  <anchor x="0" y="479" name="_top2"/>
  <anchor x="4" y="683" name="top"/>
  <outline>
    <contour>
      <point x="-110" y="485" type="curve" smooth="yes"/>
      <point x="11" y="485" type="line" smooth="yes"/>
      <point x="73.667" y="485"/>
      <point x="120" y="526.333"/>
      <point x="120" y="589" type="curve" smooth="yes"/>
      <point x="120" y="645"/>
      <point x="81.333" y="683"/>
      <point x="24" y="683" type="curve" smooth="yes"/>
      <point x="-2" y="683"/>
      <point x="-28.667" y="675.667"/>
      <point x="-56" y="661" type="curve"/>
      <point x="-68" y="641"/>
      <point x="-76" y="609"/>
      <point x="-76" y="589" type="curve" smooth="yes"/>
      <point x="-76" y="569.667"/>
      <point x="-72.333" y="551"/>
      <point x="-65" y="533" type="curve"/>
      <point x="-110" y="533" type="line" smooth="yes"/>
      <point x="-111.333" y="533"/>
      <point x="-112" y="532.333"/>
      <point x="-112" y="531" type="curve" smooth="yes"/>
      <point x="-112" y="487" type="line" smooth="yes"/>
      <point x="-112" y="485.667"/>
      <point x="-111.333" y="485"/>
    </contour>
    <contour>
      <point x="-21" y="580" type="curve" smooth="yes"/>
      <point x="-21" y="595.333"/>
      <point x="-19" y="610"/>
      <point x="-15" y="624" type="curve"/>
      <point x="-3" y="631.333"/>
      <point x="9.333" y="635"/>
      <point x="22" y="635" type="curve" smooth="yes"/>
      <point x="44.667" y="635"/>
      <point x="60" y="619.667"/>
      <point x="60" y="589" type="curve" smooth="yes"/>
      <point x="60" y="557"/>
      <point x="36" y="533"/>
      <point x="4" y="533" type="curve" smooth="yes"/>
      <point x="-11" y="533" type="line"/>
      <point x="-17.667" y="549"/>
      <point x="-21" y="564.667"/>
    </contour>
  </outline>
</glyph>
<glyph name="lamAlefabove-ar" format="2">
  <unicode hex="06D9"/>
  <note>
uni06D9
</note>
  <anchor x="15" y="479" name="_top"/>
  <anchor x="15" y="479" name="_top2"/>
  <anchor x="13" y="789" name="top"/>
  <outline>
    <contour>
      <point x="-103" y="533" type="line"/>
      <point x="-103" y="485" type="line"/>
      <point x="43" y="485" type="line" smooth="yes"/>
      <point x="97.667" y="485"/>
      <point x="128" y="520.333"/>
      <point x="128" y="575" type="curve" smooth="yes"/>
      <point x="128" y="789" type="line"/>
      <point x="69" y="789" type="line"/>
      <point x="69" y="579" type="line" smooth="yes"/>
      <point x="69" y="551"/>
      <point x="60.667" y="533"/>
      <point x="30" y="533" type="curve" smooth="yes"/>
      <point x="27" y="533" type="line"/>
      <point x="-20" y="735" type="line"/>
      <point x="-83" y="735" type="line"/>
      <point x="-31" y="533" type="line"/>
    </contour>
  </outline>
</glyph>
<glyph name="jeemabove-ar" format="2">
  <unicode hex="06DA"/>
  <note>
uni06DA
</note>
  <anchor x="20" y="488" name="_top"/>
  <anchor x="20" y="488" name="_top2"/>
  <anchor x="23" y="819" name="top"/>
  <outline>
    <contour>
      <point x="107" y="617" type="curve"/>
      <point x="137" y="656" type="line"/>
      <point x="113" y="673.333"/>
      <point x="104.333" y="690.333"/>
      <point x="95" y="741" type="curve" smooth="yes"/>
      <point x="86.333" y="793"/>
      <point x="55.667" y="819"/>
      <point x="3" y="819" type="curve" smooth="yes"/>
      <point x="-32.333" y="819"/>
      <point x="-63.667" y="811.333"/>
      <point x="-91" y="796" type="curve"/>
      <point x="-69" y="752" type="line"/>
      <point x="-47" y="764.667"/>
      <point x="-27.333" y="771"/>
      <point x="-10" y="771" type="curve" smooth="yes"/>
      <point x="17.333" y="771"/>
      <point x="35.333" y="755.333"/>
      <point x="44" y="724" type="curve" smooth="yes"/>
      <point x="53" y="692" type="line"/>
      <point x="-53.667" y="661.333"/>
      <point x="-92" y="623.667"/>
      <point x="-92" y="569" type="curve" smooth="yes"/>
      <point x="-92" y="518.333"/>
      <point x="-55.667" y="486"/>
      <point x="-1" y="486" type="curve" smooth="yes"/>
      <point x="25" y="486"/>
      <point x="51" y="490.667"/>
      <point x="77" y="500" type="curve"/>
      <point x="70" y="543" type="line"/>
      <point x="48" y="537.667"/>
      <point x="28.333" y="535"/>
      <point x="11" y="535" type="curve" smooth="yes"/>
      <point x="-15.667" y="535"/>
      <point x="-34" y="550.333"/>
      <point x="-34" y="573" type="curve" smooth="yes"/>
      <point x="-34" y="616.18"/>
      <point x="4.865" y="631.022"/>
      <point x="74" y="650" type="curve"/>
      <point x="82.667" y="637.333"/>
      <point x="93.667" y="626.333"/>
    </contour>
    <contour>
      <point x="27" y="556" type="curve" smooth="yes"/>
      <point x="41.667" y="556"/>
      <point x="54" y="565"/>
      <point x="54" y="585" type="curve" smooth="yes"/>
      <point x="54" y="605"/>
      <point x="41.667" y="614"/>
      <point x="27" y="614" type="curve" smooth="yes"/>
      <point x="13.667" y="614"/>
      <point x="1" y="605"/>
      <point x="1" y="585" type="curve" smooth="yes"/>
      <point x="1" y="565"/>
      <point x="13.667" y="556"/>
    </contour>
  </outline>
</glyph>
<glyph name="seenabove-ar" format="2">
  <unicode hex="06DC"/>
  <note>
uni06DC
</note>
  <anchor x="39" y="488" name="_top"/>
  <anchor x="39" y="488" name="_top2"/>
  <outline>
    <contour>
      <point x="103" y="575" type="curve" smooth="yes"/>
      <point x="187" y="575" type="line"/>
      <point x="187" y="773" type="line"/>
      <point x="127" y="773" type="line"/>
      <point x="127" y="623" type="line"/>
      <point x="102" y="623" type="line" smooth="yes"/>
      <point x="82" y="623"/>
      <point x="70.333" y="628.667"/>
      <point x="57" y="646" type="curve"/>
      <point x="58.333" y="652"/>
      <point x="59" y="658.333"/>
      <point x="59" y="665" type="curve" smooth="yes"/>
      <point x="59" y="742" type="line"/>
      <point x="-1" y="742" type="line"/>
      <point x="-1" y="670" type="line" smooth="yes"/>
      <point x="-1" y="640.667"/>
      <point x="-9.667" y="623"/>
      <point x="-39" y="623" type="curve" smooth="yes"/>
      <point x="-73" y="623" type="line"/>
      <point x="-73" y="742" type="line"/>
      <point x="-133" y="742" type="line"/>
      <point x="-133" y="591" type="line" smooth="yes"/>
      <point x="-133" y="548.333"/>
      <point x="-153" y="527"/>
      <point x="-193" y="527" type="curve" smooth="yes"/>
      <point x="-205" y="527" type="line" smooth="yes"/>
      <point x="-237" y="527"/>
      <point x="-258" y="552.333"/>
      <point x="-258" y="591" type="curve" smooth="yes"/>
      <point x="-258" y="614.333"/>
      <point x="-253.667" y="644"/>
      <point x="-245" y="680" type="curve"/>
      <point x="-297" y="680" type="line"/>
      <point x="-311" y="652"/>
      <point x="-318" y="622.333"/>
      <point x="-318" y="591" type="curve" smooth="yes"/>
      <point x="-318" y="523"/>
      <point x="-277" y="479"/>
      <point x="-209" y="479" type="curve" smooth="yes"/>
      <point x="-191" y="479" type="line" smooth="yes"/>
      <point x="-118.333" y="479"/>
      <point x="-79.333" y="511"/>
      <point x="-74" y="575" type="curve"/>
      <point x="-26" y="575" type="line" smooth="yes"/>
      <point x="3.333" y="575"/>
      <point x="25.667" y="585"/>
      <point x="41" y="605" type="curve"/>
      <point x="60.333" y="585"/>
      <point x="81" y="575"/>
    </contour>
  </outline>
</glyph>
<glyph name="sukunoval-ar" format="2">
  <unicode hex="06E0"/>
  <note>
uni06E0
</note>
  <anchor x="0" y="518" name="_top"/>
  <anchor x="0" y="518" name="_top2"/>
  <anchor x="-1" y="662" name="top"/>
  <outline>
    <contour>
      <point x="67" y="527" type="line"/>
      <point x="67" y="662" type="line"/>
      <point x="-68" y="662" type="line"/>
      <point x="-68" y="527" type="line"/>
    </contour>
  </outline>
</glyph>
<glyph name="hahabove-ar" format="2">
  <unicode hex="06E1"/>
  <note>
uni06E1
</note>
  <anchor x="0" y="479" name="_top"/>
  <anchor x="0" y="479" name="_top2"/>
  <anchor x="-2" y="687" name="top"/>
  <outline>
    <contour>
      <point x="-112" y="485" type="curve" smooth="yes"/>
      <point x="110" y="485" type="line"/>
      <point x="110" y="533" type="line"/>
      <point x="98" y="545"/>
      <point x="88.667" y="570.667"/>
      <point x="82" y="610" type="curve" smooth="yes"/>
      <point x="72.667" y="664.667"/>
      <point x="44.667" y="687"/>
      <point x="-10" y="687" type="curve" smooth="yes"/>
      <point x="-42.667" y="687"/>
      <point x="-70.667" y="680.667"/>
      <point x="-94" y="668" type="curve"/>
      <point x="-76" y="624" type="line"/>
      <point x="-57.333" y="634"/>
      <point x="-39.333" y="639"/>
      <point x="-22" y="639" type="curve" smooth="yes"/>
      <point x="6" y="639"/>
      <point x="18" y="627"/>
      <point x="26" y="591" type="curve" smooth="yes"/>
      <point x="32" y="561"/>
      <point x="40" y="542"/>
      <point x="50" y="534" type="curve"/>
      <point x="50" y="533" type="line"/>
      <point x="-112" y="533" type="line" smooth="yes"/>
      <point x="-113.333" y="533"/>
      <point x="-114" y="532.333"/>
      <point x="-114" y="531" type="curve" smooth="yes"/>
      <point x="-114" y="487" type="line" smooth="yes"/>
      <point x="-114" y="485.667"/>
      <point x="-113.333" y="485"/>
    </contour>
  </outline>
</glyph>
<glyph name="meemStopabove-ar" format="2">
  <unicode hex="06E2"/>
  <note>
uni06E2
</note>
  <anchor x="0" y="488" name="_top"/>
  <anchor x="0" y="488" name="_top2"/>
  <anchor x="12" y="811" name="top"/>
  <outline>
    <contour>
      <point x="-107" y="602" type="curve" smooth="yes"/>
      <point x="-107" y="485" type="line"/>
      <point x="-47" y="485" type="line"/>
      <point x="-47" y="583" type="line" smooth="yes"/>
      <point x="-47" y="607"/>
      <point x="-36.333" y="613"/>
      <point x="-15" y="613" type="curve" smooth="yes"/>
      <point x="22" y="613" type="line" smooth="yes"/>
      <point x="86" y="613"/>
      <point x="131" y="655.667"/>
      <point x="131" y="717" type="curve" smooth="yes"/>
      <point x="131" y="774.333"/>
      <point x="92.333" y="811"/>
      <point x="35" y="811" type="curve" smooth="yes"/>
      <point x="9.667" y="811"/>
      <point x="-17" y="803.667"/>
      <point x="-45" y="789" type="curve"/>
      <point x="-57" y="770.333"/>
      <point x="-65" y="739.667"/>
      <point x="-65" y="717" type="curve" smooth="yes"/>
      <point x="-65" y="697"/>
      <point x="-61.333" y="678.333"/>
      <point x="-54" y="661" type="curve"/>
      <point x="-89.333" y="657.667"/>
      <point x="-107" y="638"/>
    </contour>
    <contour>
      <point x="-10" y="708" type="curve" smooth="yes"/>
      <point x="-10" y="722.667"/>
      <point x="-8" y="737.333"/>
      <point x="-4" y="752" type="curve"/>
      <point x="8.667" y="759.333"/>
      <point x="21" y="763"/>
      <point x="33" y="763" type="curve" smooth="yes"/>
      <point x="55.667" y="763"/>
      <point x="71" y="747.667"/>
      <point x="71" y="717" type="curve" smooth="yes"/>
      <point x="71" y="685"/>
      <point x="45.667" y="661"/>
      <point x="15" y="661" type="curve" smooth="yes"/>
      <point x="0" y="661" type="line"/>
      <point x="-6.667" y="677.667"/>
      <point x="-10" y="693.333"/>
    </contour>
  </outline>
</glyph>
<glyph name="seenbelow-ar" format="2">
  <unicode hex="06E3"/>
  <note>
uni06E3
</note>
  <anchor x="29" y="39" name="_bottom"/>
  <anchor x="29" y="39" name="_bottom2"/>
  <anchor x="0" y="-244" name="bottom"/>
  <outline>
    <contour>
      <point x="121" y="-144" type="curve" smooth="yes"/>
      <point x="205" y="-144" type="line"/>
      <point x="205" y="54" type="line"/>
      <point x="145" y="54" type="line"/>
      <point x="145" y="-96" type="line"/>
      <point x="120" y="-96" type="line" smooth="yes"/>
      <point x="100" y="-96"/>
      <point x="88.333" y="-89.333"/>
      <point x="75" y="-72" type="curve"/>
      <point x="76" y="-67"/>
      <point x="77" y="-60"/>
      <point x="77" y="-54" type="curve"/>
      <point x="77" y="23" type="line"/>
      <point x="17" y="23" type="line"/>
      <point x="17" y="-49" type="line" smooth="yes"/>
      <point x="17" y="-78.333"/>
      <point x="8.333" y="-96"/>
      <point x="-21" y="-96" type="curve" smooth="yes"/>
      <point x="-55" y="-96" type="line"/>
      <point x="-55" y="23" type="line"/>
      <point x="-115" y="23" type="line"/>
      <point x="-115" y="-128" type="line" smooth="yes"/>
      <point x="-115" y="-170.667"/>
      <point x="-135" y="-192"/>
      <point x="-175" y="-192" type="curve" smooth="yes"/>
      <point x="-187" y="-192" type="line" smooth="yes"/>
      <point x="-219" y="-192"/>
      <point x="-240" y="-166.667"/>
      <point x="-240" y="-128" type="curve" smooth="yes"/>
      <point x="-240" y="-104.667"/>
      <point x="-235.667" y="-75"/>
      <point x="-227" y="-39" type="curve"/>
      <point x="-279" y="-39" type="line"/>
      <point x="-293" y="-66.333"/>
      <point x="-300" y="-96"/>
      <point x="-300" y="-128" type="curve" smooth="yes"/>
      <point x="-300" y="-196"/>
      <point x="-257.667" y="-240"/>
      <point x="-191" y="-240" type="curve" smooth="yes"/>
      <point x="-173" y="-240" type="line" smooth="yes"/>
      <point x="-100.333" y="-240"/>
      <point x="-61.333" y="-208"/>
      <point x="-56" y="-144" type="curve"/>
      <point x="-8" y="-144" type="line" smooth="yes"/>
      <point x="20.667" y="-144"/>
      <point x="43" y="-134"/>
      <point x="59" y="-114" type="curve"/>
      <point x="78.333" y="-134"/>
      <point x="99" y="-144"/>
    </contour>
  </outline>
</glyph>
<glyph name="maddalong-ar" format="2">
  <unicode hex="06E4"/>
  <note>
uni06E4
</note>
  <anchor x="0" y="547" name="_top"/>
  <anchor x="0" y="547" name="_top2"/>
  <anchor x="2" y="614" name="top"/>
  <outline>
    <contour>
      <point x="-69" y="562" type="curve"/>
      <point x="-48" y="562" type="line"/>
      <point x="-44" y="578"/>
      <point x="-38.667" y="584"/>
      <point x="-28" y="584" type="curve" smooth="yes"/>
      <point x="-22.667" y="584"/>
      <point x="-13.333" y="580.333"/>
      <point x="0" y="573" type="curve" smooth="yes"/>
      <point x="12.667" y="565.667"/>
      <point x="22.667" y="562"/>
      <point x="30" y="562" type="curve" smooth="yes"/>
      <point x="54" y="562"/>
      <point x="68" y="582"/>
      <point x="72" y="614" type="curve"/>
      <point x="51" y="614" type="line"/>
      <point x="47" y="598"/>
      <point x="42" y="592"/>
      <point x="30" y="592" type="curve" smooth="yes"/>
      <point x="25.333" y="592"/>
      <point x="16.667" y="595.667"/>
      <point x="4" y="603" type="curve" smooth="yes"/>
      <point x="-9.333" y="610.333"/>
      <point x="-20" y="614"/>
      <point x="-28" y="614" type="curve" smooth="yes"/>
      <point x="-52" y="614"/>
      <point x="-65" y="592.667"/>
    </contour>
  </outline>
</glyph>
<glyph name="wawSmall-ar" format="2">
  <advance width="231"/>
  <unicode hex="06E5"/>
  <note>
uni06E5
</note>
  <outline>
    <contour>
      <point x="105" y="485" type="curve" smooth="yes"/>
      <point x="170.333" y="485"/>
      <point x="211" y="520"/>
      <point x="211" y="580" type="curve" smooth="yes"/>
      <point x="211" y="779" type="line"/>
      <point x="150" y="779" type="line" smooth="yes"/>
      <point x="71.333" y="779"/>
      <point x="23" y="737.667"/>
      <point x="23" y="675" type="curve" smooth="yes"/>
      <point x="23" y="611"/>
      <point x="58.667" y="581"/>
      <point x="112" y="581" type="curve" smooth="yes"/>
      <point x="151" y="581" type="line"/>
      <point x="151" y="579" type="line" smooth="yes"/>
      <point x="151" y="548.333"/>
      <point x="135.333" y="533"/>
      <point x="104" y="533" type="curve" smooth="yes"/>
      <point x="81.333" y="533"/>
      <point x="61" y="538"/>
      <point x="43" y="548" type="curve"/>
      <point x="20" y="505" type="line"/>
      <point x="46.667" y="489"/>
      <point x="69" y="485"/>
    </contour>
    <contour>
      <point x="151" y="629" type="line"/>
      <point x="124" y="629" type="line" smooth="yes"/>
      <point x="97.333" y="629"/>
      <point x="84" y="644.667"/>
      <point x="84" y="676" type="curve" smooth="yes"/>
      <point x="84" y="709.333"/>
      <point x="102" y="731"/>
      <point x="138" y="731" type="curve" smooth="yes"/>
      <point x="151" y="731" type="line"/>
    </contour>
  </outline>
</glyph>
<glyph name="yehabove-ar" format="2">
  <unicode hex="06E7"/>
  <note>
uni06E7
</note>
  <anchor x="-15" y="479" name="_top"/>
  <anchor x="-15" y="479" name="_top2"/>
  <anchor x="-26" y="707" name="top"/>
  <outline>
    <contour>
      <point x="-77" y="485" type="curve" smooth="yes"/>
      <point x="110" y="485" type="line"/>
      <point x="110" y="533" type="line"/>
      <point x="-77" y="533" type="line" smooth="yes"/>
      <point x="-93" y="533"/>
      <point x="-101" y="539"/>
      <point x="-101" y="551" type="curve" smooth="yes"/>
      <point x="-101" y="559.667"/>
      <point x="-96.167" y="567.167"/>
      <point x="-86.5" y="573.5" type="curve" smooth="yes"/>
      <point x="-76.833" y="579.833"/>
      <point x="-59.333" y="587.667"/>
      <point x="-34" y="597" type="curve" smooth="yes"/>
      <point x="22" y="618.333"/>
      <point x="40" y="641.667"/>
      <point x="40" y="691" type="curve" smooth="yes"/>
      <point x="40" y="707" type="line"/>
      <point x="-20" y="707" type="line"/>
      <point x="-20" y="693" type="line" smooth="yes"/>
      <point x="-20" y="658.333"/>
      <point x="-29" y="650.333"/>
      <point x="-81" y="629" type="curve" smooth="yes"/>
      <point x="-146.333" y="601"/>
      <point x="-161" y="581"/>
      <point x="-161" y="549" type="curve" smooth="yes"/>
      <point x="-161" y="506.333"/>
      <point x="-127.667" y="485"/>
    </contour>
  </outline>
</glyph>
<glyph name="rhombusStopabove-ar" format="2">
  <unicode hex="06EB"/>
  <note>
uni06EB
</note>
  <anchor x="0" y="479" name="_top"/>
  <anchor x="0" y="479" name="_top2"/>
  <anchor x="0" y="668" name="top"/>
  <outline>
    <contour>
      <point x="103" y="565" type="line"/>
      <point x="0" y="668" type="line"/>
      <point x="-103" y="565" type="line"/>
      <point x="0" y="462" type="line"/>
    </contour>
    <contour>
      <point x="51" y="565" type="line"/>
      <point x="0" y="514" type="line"/>
      <point x="-51" y="565" type="line"/>
      <point x="0" y="616" type="line"/>
    </contour>
  </outline>
</glyph>
<glyph name="meembelow-ar" format="2">
  <unicode hex="06ED"/>
  <note>
uni06ED
</note>
  <anchor x="0" y="-49" name="_bottom"/>
  <anchor x="0" y="-49" name="_bottom2"/>
  <anchor x="0" y="-381" name="bottom"/>
  <outline>
    <contour>
      <point x="-127" y="-259" type="curve" smooth="yes"/>
      <point x="-127" y="-376" type="line"/>
      <point x="-67" y="-376" type="line"/>
      <point x="-67" y="-278" type="line" smooth="yes"/>
      <point x="-67" y="-254"/>
      <point x="-56.333" y="-248"/>
      <point x="-35" y="-248" type="curve" smooth="yes"/>
      <point x="2" y="-248" type="line" smooth="yes"/>
      <point x="66" y="-248"/>
      <point x="111" y="-204"/>
      <point x="111" y="-144" type="curve" smooth="yes"/>
      <point x="111" y="-86.667"/>
      <point x="72.333" y="-50"/>
      <point x="15" y="-50" type="curve" smooth="yes"/>
      <point x="-10.333" y="-50"/>
      <point x="-37" y="-57.333"/>
      <point x="-65" y="-72" type="curve"/>
      <point x="-77" y="-89.333"/>
      <point x="-85" y="-120"/>
      <point x="-85" y="-144" type="curve" smooth="yes"/>
      <point x="-85" y="-164.667"/>
      <point x="-81.333" y="-183.333"/>
      <point x="-74" y="-200" type="curve"/>
      <point x="-110" y="-202.667"/>
      <point x="-127" y="-224.333"/>
    </contour>
    <contour>
      <point x="-30" y="-153" type="curve" smooth="yes"/>
      <point x="-30" y="-137.667"/>
      <point x="-28" y="-123"/>
      <point x="-24" y="-109" type="curve"/>
      <point x="-11.333" y="-101.667"/>
      <point x="1" y="-98"/>
      <point x="13" y="-98" type="curve" smooth="yes"/>
      <point x="35.667" y="-98"/>
      <point x="51" y="-113.333"/>
      <point x="51" y="-144" type="curve" smooth="yes"/>
      <point x="51" y="-174.667"/>
      <point x="27" y="-200"/>
      <point x="-5" y="-200" type="curve" smooth="yes"/>
      <point x="-20" y="-200" type="line"/>
      <point x="-26.667" y="-182.667"/>
      <point x="-30" y="-167"/>
    </contour>
  </outline>
</glyph>
<glyph name="five-persian" format="2">
  <advance width="627"/>
  <unicode hex="06F5"/>
  <note>
uni06F5
</note>
  <outline>
    <contour>
      <point x="217" y="-10" type="curve" smooth="yes"/>
      <point x="258.333" y="-10"/>
      <point x="294.667" y="15.333"/>
      <point x="312" y="50" type="curve"/>
      <point x="333.333" y="14"/>
      <point x="370.667" y="-10"/>
      <point x="412" y="-10" type="curve" smooth="yes"/>
      <point x="506.667" y="-10"/>
      <point x="562" y="86.667"/>
      <point x="562" y="260" type="curve" smooth="yes"/>
      <point x="562" y="412"/>
      <point x="511.5" y="555.833"/>
      <point x="437.5" y="628.5" type="curve" smooth="yes"/>
      <point x="400.5" y="664.833"/>
      <point x="359.667" y="683"/>
      <point x="315" y="683" type="curve" smooth="yes"/>
      <point x="223" y="683"/>
      <point x="143.167" y="603.333"/>
      <point x="98.5" y="470" type="curve" smooth="yes"/>
      <point x="76.167" y="403.333"/>
      <point x="65" y="333.333"/>
      <point x="65" y="260" type="curve" smooth="yes"/>
      <point x="65" y="90.667"/>
      <point x="122.333" y="-10"/>
    </contour>
    <contour>
      <point x="246" y="113" type="curve" smooth="yes"/>
      <point x="215.333" y="113"/>
      <point x="200" y="164.667"/>
      <point x="200" y="268" type="curve" smooth="yes"/>
      <point x="200" y="362.667"/>
      <point x="223.333" y="462.667"/>
      <point x="258" y="520" type="curve" smooth="yes"/>
      <point x="275.333" y="548.667"/>
      <point x="292.667" y="563"/>
      <point x="310" y="563" type="curve" smooth="yes"/>
      <point x="352.52" y="563"/>
      <point x="387.666" y="491.541"/>
      <point x="405.5" y="411" type="curve" smooth="yes"/>
      <point x="415.833" y="364.333"/>
      <point x="421" y="316.667"/>
      <point x="421" y="268" type="curve" smooth="yes"/>
      <point x="421" y="164"/>
      <point x="407.667" y="112"/>
      <point x="381" y="112" type="curve" smooth="yes"/>
      <point x="358" y="112"/>
      <point x="354" y="152"/>
      <point x="352" y="197" type="curve"/>
      <point x="278" y="198" type="line"/>
      <point x="275" y="156"/>
      <point x="270" y="113"/>
    </contour>
  </outline>
</glyph>
<glyph name="six-persian" format="2">
  <advance width="531"/>
  <unicode hex="06F6"/>
  <note>
uni06F6
</note>
  <outline>
    <contour>
      <point x="69" y="0" type="curve"/>
      <point x="205" y="0" type="line"/>
      <point x="259.667" y="132"/>
      <point x="330" y="207.333"/>
      <point x="486" y="298" type="curve"/>
      <point x="436" y="416" type="line"/>
      <point x="404" y="401.333"/>
      <point x="348.667" y="367.333"/>
      <point x="318" y="346" type="curve"/>
      <point x="244.667" y="363.333"/>
      <point x="208" y="404.667"/>
      <point x="208" y="466" type="curve" smooth="yes"/>
      <point x="208" y="530"/>
      <point x="242" y="564"/>
      <point x="298" y="564" type="curve" smooth="yes"/>
      <point x="340" y="564"/>
      <point x="383.667" y="554"/>
      <point x="429" y="534" type="curve"/>
      <point x="470" y="648" type="line"/>
      <point x="432.667" y="665.333"/>
      <point x="356.333" y="684"/>
      <point x="299" y="684" type="curve" smooth="yes"/>
      <point x="147" y="684"/>
      <point x="65" y="610.667"/>
      <point x="65" y="480" type="curve" smooth="yes"/>
      <point x="65" y="381.333"/>
      <point x="136.333" y="302"/>
      <point x="235" y="278" type="curve"/>
      <point x="161.667" y="204.667"/>
      <point x="106.333" y="112"/>
    </contour>
  </outline>
</glyph>
<glyph name="rehStroke-ar" format="2">
  <advance width="438"/>
  <unicode hex="075B"/>
  <note>
uni075B
</note>
  <anchor x="98" y="-391" name="bottom"/>
  <anchor x="205" y="566" name="top"/>
  <outline>
    <contour>
      <point x="34" y="-51" type="line"/>
      <point x="34" y="-148" type="line"/>
      <point x="139" y="-148" type="line"/>
      <point x="116.333" y="-185.333"/>
      <point x="84.333" y="-221.667"/>
      <point x="43" y="-257" type="curve"/>
      <point x="133" y="-360" type="line"/>
      <point x="223.667" y="-281.333"/>
      <point x="271" y="-216"/>
      <point x="299" y="-148" type="curve"/>
      <point x="386" y="-148" type="line"/>
      <point x="386" y="-51" type="line"/>
      <point x="323" y="-51" type="line"/>
      <point x="324" y="-39"/>
      <point x="324" y="-28"/>
      <point x="325" y="-16" type="curve"/>
      <point x="325" y="495" type="line"/>
      <point x="176" y="495" type="line"/>
      <point x="176" y="-18" type="line" smooth="yes"/>
      <point x="176" y="-29.333"/>
      <point x="175" y="-40.333"/>
      <point x="173" y="-51" type="curve"/>
    </contour>
  </outline>
</glyph>
<glyph name="parenright-ar" format="2">
  <advance width="339"/>
  <unicode hex="FD3F"/>
  <note>
uniFD3F
</note>
  <outline>
    <contour>
      <point x="299" y="274" type="curve" smooth="yes"/>
      <point x="299" y="444.667"/>
      <point x="248" y="599.333"/>
      <point x="152" y="714" type="curve"/>
      <point x="30" y="714" type="line"/>
      <point x="122" y="588.667"/>
      <point x="169" y="433.667"/>
      <point x="169" y="275" type="curve" smooth="yes"/>
      <point x="169" y="115"/>
      <point x="119" y="-38"/>
      <point x="31" y="-158" type="curve"/>
      <point x="152" y="-158" type="line"/>
      <point x="246.667" y="-48.667"/>
      <point x="299" y="103.333"/>
    </contour>
  </outline>
</glyph>
<glyph name="ain-ar.fina" format="2">
  <advance width="634"/>
  <note>
uni0639.fina
</note>
  <anchor x="234" y="-381" name="bottom"/>
  <anchor x="293" y="605" name="top"/>
  <outline>
    <contour>
      <point x="69" y="-123" type="curve" smooth="yes"/>
      <point x="69" y="-244.333"/>
      <point x="159.667" y="-326"/>
      <point x="297" y="-326" type="curve" smooth="yes"/>
      <point x="361" y="-326"/>
      <point x="419" y="-317.333"/>
      <point x="491" y="-292" type="curve"/>
      <point x="474" y="-183" type="line"/>
      <point x="420.667" y="-197"/>
      <point x="371.667" y="-204"/>
      <point x="327" y="-204" type="curve" smooth="yes"/>
      <point x="253.667" y="-204"/>
      <point x="215" y="-171"/>
      <point x="215" y="-115" type="curve" smooth="yes"/>
      <point x="215" y="-55"/>
      <point x="248" y="-4"/>
      <point x="328" y="56" type="curve"/>
      <point x="388" y="21.333"/>
      <point x="458.667" y="0"/>
      <point x="512" y="0" type="curve" smooth="yes"/>
      <point x="639" y="0" type="line" smooth="yes"/>
      <point x="642.333" y="0"/>
      <point x="644" y="1.667"/>
      <point x="644" y="5" type="curve" smooth="yes"/>
      <point x="644" y="116" type="line" smooth="yes"/>
      <point x="644" y="118.667"/>
      <point x="642.333" y="120"/>
      <point x="639" y="120" type="curve" smooth="yes"/>
      <point x="524" y="120" type="line" smooth="yes"/>
      <point x="490" y="120"/>
      <point x="459.667" y="124"/>
      <point x="433" y="132" type="curve"/>
      <point x="539.667" y="220"/>
      <point x="597" y="339.667"/>
      <point x="597" y="477" type="curve"/>
      <point x="524.333" y="517"/>
      <point x="440.667" y="537"/>
      <point x="346" y="537" type="curve" smooth="yes"/>
      <point x="252.667" y="537"/>
      <point x="142.333" y="496"/>
      <point x="65" y="432" type="curve"/>
      <point x="82.333" y="324"/>
      <point x="146.667" y="205"/>
      <point x="232" y="125" type="curve"/>
      <point x="120" y="43.667"/>
      <point x="69" y="-35"/>
    </contour>
    <contour>
      <point x="214" y="379" type="curve"/>
      <point x="240.667" y="399"/>
      <point x="299.333" y="417"/>
      <point x="342" y="417" type="curve" smooth="yes"/>
      <point x="388.667" y="417"/>
      <point x="421.667" y="412.333"/>
      <point x="455" y="399" type="curve"/>
      <point x="448.333" y="317.667"/>
      <point x="401.333" y="241.667"/>
      <point x="332" y="191" type="curve"/>
      <point x="274.667" y="244.333"/>
      <point x="235.333" y="307"/>
    </contour>
  </outline>
</glyph>
<glyph name="ain-ar.init" format="2">
  <advance width="567"/>
  <note>
uni0639.init
</note>
  <anchor x="244" y="-78" name="bottom"/>
  <anchor x="273" y="586" name="top"/>
  <outline>
    <contour>
      <point x="-5" y="0" type="curve" smooth="yes"/>
      <point x="522" y="0" type="line"/>
      <point x="522" y="120" type="line"/>
      <point x="339" y="120" type="line" smooth="yes"/>
      <point x="260.333" y="120"/>
      <point x="211" y="176.667"/>
      <point x="211" y="258" type="curve" smooth="yes"/>
      <point x="211" y="339.333"/>
      <point x="257.333" y="385"/>
      <point x="340" y="385" type="curve" smooth="yes"/>
      <point x="381.333" y="385"/>
      <point x="419.333" y="377.667"/>
      <point x="470" y="355" type="curve"/>
      <point x="512" y="472" type="line"/>
      <point x="474.667" y="489.333"/>
      <point x="402.667" y="505"/>
      <point x="344" y="505" type="curve" smooth="yes"/>
      <point x="173.333" y="505"/>
      <point x="68" y="413.333"/>
      <point x="68" y="264" type="curve" smooth="yes"/>
      <point x="68" y="200"/>
      <point x="99.667" y="142.667"/>
      <point x="149" y="120" type="curve"/>
      <point x="-5" y="120" type="line" smooth="yes"/>
      <point x="-8.333" y="120"/>
      <point x="-10" y="118.667"/>
      <point x="-10" y="116" type="curve" smooth="yes"/>
      <point x="-10" y="5" type="line" smooth="yes"/>
      <point x="-10" y="1.667"/>
      <point x="-8.333" y="0"/>
    </contour>
  </outline>
</glyph>
<glyph name="ain-ar.medi" format="2">
  <advance width="604"/>
  <note>
uni0639.medi
</note>
  <anchor x="244" y="-78" name="bottom"/>
  <anchor x="273" y="625" name="top"/>
  <outline>
    <contour>
      <point x="482" y="0" type="curve" smooth="yes"/>
      <point x="609" y="0" type="line" smooth="yes"/>
      <point x="612.333" y="0"/>
      <point x="614" y="1.667"/>
      <point x="614" y="5" type="curve" smooth="yes"/>
      <point x="614" y="116" type="line" smooth="yes"/>
      <point x="614" y="118.667"/>
      <point x="612.333" y="120"/>
      <point x="609" y="120" type="curve" smooth="yes"/>
      <point x="494" y="120" type="line" smooth="yes"/>
      <point x="458.667" y="120"/>
      <point x="428.667" y="126.667"/>
      <point x="404" y="140" type="curve"/>
      <point x="504" y="204"/>
      <point x="567" y="333"/>
      <point x="567" y="477" type="curve"/>
      <point x="495" y="517"/>
      <point x="411.333" y="537"/>
      <point x="316" y="537" type="curve" smooth="yes"/>
      <point x="222.667" y="537"/>
      <point x="113.667" y="497.333"/>
      <point x="35" y="432" type="curve"/>
      <point x="47" y="360"/>
      <point x="82" y="277.5"/>
      <point x="126" y="211.5" type="curve" smooth="yes"/>
      <point x="148" y="178.5"/>
      <point x="169" y="154.333"/>
      <point x="189" y="139" type="curve"/>
      <point x="166.333" y="128.333"/>
      <point x="125.667" y="120"/>
      <point x="95" y="120" type="curve" smooth="yes"/>
      <point x="-5" y="120" type="line" smooth="yes"/>
      <point x="-8.333" y="120"/>
      <point x="-10" y="118.667"/>
      <point x="-10" y="116" type="curve" smooth="yes"/>
      <point x="-10" y="5" type="line" smooth="yes"/>
      <point x="-10" y="1.667"/>
      <point x="-8.333" y="0"/>
      <point x="-5" y="0" type="curve" smooth="yes"/>
      <point x="111" y="0" type="line" smooth="yes"/>
      <point x="173.667" y="0"/>
      <point x="235.667" y="18.667"/>
      <point x="297" y="56" type="curve"/>
      <point x="345" y="24"/>
      <point x="419.333" y="0"/>
    </contour>
    <contour>
      <point x="299" y="201" type="curve"/>
      <point x="247" y="235.667"/>
      <point x="204" y="305.667"/>
      <point x="184" y="379" type="curve"/>
      <point x="213.333" y="400.333"/>
      <point x="269.333" y="417"/>
      <point x="312" y="417" type="curve" smooth="yes"/>
      <point x="358" y="417"/>
      <point x="395.667" y="411"/>
      <point x="425" y="399" type="curve"/>
      <point x="419" y="313.667"/>
      <point x="377" y="247.667"/>
    </contour>
  </outline>
</glyph>
<glyph name="alefMaksura-ar.fina" format="2">
  <advance width="1005"/>
  <note>
uni0649.fina
</note>
  <anchor x="391" y="-322" name="bottom"/>
  <anchor x="225" y="322" name="top"/>
  <outline>
    <contour>
      <point x="266" y="-240" type="curve" smooth="yes"/>
      <point x="502" y="-240" type="line" smooth="yes"/>
      <point x="694" y="-240"/>
      <point x="789" y="-176.333"/>
      <point x="789" y="-59" type="curve" smooth="yes"/>
      <point x="789" y="-8.333"/>
      <point x="768.167" y="27.5"/>
      <point x="727.5" y="53.5" type="curve" smooth="yes"/>
      <point x="707.167" y="66.5"/>
      <point x="675.667" y="80.333"/>
      <point x="633" y="95" type="curve" smooth="yes"/>
      <point x="583.667" y="111"/>
      <point x="561" y="131.333"/>
      <point x="561" y="158" type="curve" smooth="yes"/>
      <point x="561" y="191.28"/>
      <point x="623.807" y="251"/>
      <point x="659" y="251" type="curve" smooth="yes"/>
      <point x="675" y="251"/>
      <point x="692" y="243.667"/>
      <point x="710" y="229" type="curve" smooth="yes"/>
      <point x="728" y="214.333"/>
      <point x="752.667" y="185"/>
      <point x="784" y="141" type="curve" smooth="yes"/>
      <point x="810.667" y="103"/>
      <point x="827.667" y="80.333"/>
      <point x="835" y="73" type="curve" smooth="yes"/>
      <point x="888.333" y="15.667"/>
      <point x="933" y="0"/>
      <point x="1005" y="0" type="curve" smooth="yes"/>
      <point x="1010" y="0" type="line" smooth="yes"/>
      <point x="1013.333" y="0"/>
      <point x="1015" y="1.667"/>
      <point x="1015" y="5" type="curve" smooth="yes"/>
      <point x="1015" y="116" type="line" smooth="yes"/>
      <point x="1015" y="118.667"/>
      <point x="1013.333" y="120"/>
      <point x="1010" y="120" type="curve" smooth="yes"/>
      <point x="1005" y="120" type="line" smooth="yes"/>
      <point x="983" y="120"/>
      <point x="962.667" y="126.5"/>
      <point x="944" y="139.5" type="curve" smooth="yes"/>
      <point x="925.333" y="152.5"/>
      <point x="900.667" y="181"/>
      <point x="870" y="225" type="curve" smooth="yes"/>
      <point x="812.11" y="307.842"/>
      <point x="778.792" y="349.913"/>
      <point x="733.5" y="370.5" type="curve" smooth="yes"/>
      <point x="715.167" y="378.833"/>
      <point x="695.333" y="383"/>
      <point x="674" y="383" type="curve" smooth="yes"/>
      <point x="600.667" y="383"/>
      <point x="511.667" y="323.167"/>
      <point x="461" y="246.5" type="curve" smooth="yes"/>
      <point x="435.667" y="208.167"/>
      <point x="423" y="171.667"/>
      <point x="423" y="137" type="curve" smooth="yes"/>
      <point x="423" y="57"/>
      <point x="460" y="12"/>
      <point x="572" y="-16" type="curve" smooth="yes"/>
      <point x="620" y="-29.333"/>
      <point x="641" y="-44.333"/>
      <point x="641" y="-67" type="curve" smooth="yes"/>
      <point x="641" y="-115"/>
      <point x="580" y="-120"/>
      <point x="501" y="-120" type="curve" smooth="yes"/>
      <point x="328" y="-120" type="line" smooth="yes"/>
      <point x="265.201" y="-120"/>
      <point x="209" y="-58.509"/>
      <point x="209" y="10" type="curve" smooth="yes"/>
      <point x="209" y="83.333"/>
      <point x="212.667" y="126.333"/>
      <point x="230" y="181" type="curve"/>
      <point x="97" y="181" type="line"/>
      <point x="75.667" y="117"/>
      <point x="65" y="52.667"/>
      <point x="65" y="-12" type="curve" smooth="yes"/>
      <point x="65" y="-140"/>
      <point x="144" y="-240"/>
    </contour>
  </outline>
</glyph>
<glyph name="behThreedotshorizontalbelow-ar.medi" format="2">
  <advance width="601"/>
  <note>
uni0750.medi
</note>
  <anchor x="322" y="-293" name="bottom"/>
  <anchor x="322" y="586" name="top"/>
  <outline>
    <contour>
      <point x="-5" y="0" type="curve" smooth="yes"/>
      <point x="606" y="0" type="line" smooth="yes"/>
      <point x="609.333" y="0"/>
      <point x="611" y="1.667"/>
      <point x="611" y="5" type="curve" smooth="yes"/>
      <point x="611" y="116" type="line" smooth="yes"/>
      <point x="611" y="118.667"/>
      <point x="609.333" y="120"/>
      <point x="606" y="120" type="curve" smooth="yes"/>
      <point x="486" y="120" type="line"/>
      <point x="486" y="485" type="line"/>
      <point x="337" y="485" type="line"/>
      <point x="337" y="120" type="line"/>
      <point x="-5" y="120" type="line" smooth="yes"/>
      <point x="-8.333" y="120"/>
      <point x="-10" y="118.667"/>
      <point x="-10" y="116" type="curve" smooth="yes"/>
      <point x="-10" y="5" type="line" smooth="yes"/>
      <point x="-10" y="1.667"/>
      <point x="-8.333" y="0"/>
    </contour>
    <contour>
      <point x="146" y="-250" type="curve" smooth="yes"/>
      <point x="186" y="-250"/>
      <point x="212" y="-223.333"/>
      <point x="212" y="-178" type="curve" smooth="yes"/>
      <point x="212" y="-132.667"/>
      <point x="187.333" y="-106"/>
      <point x="146" y="-106" type="curve" smooth="yes"/>
      <point x="104.667" y="-106"/>
      <point x="79" y="-131.333"/>
      <point x="79" y="-178" type="curve" smooth="yes"/>
      <point x="79" y="-224.667"/>
      <point x="106" y="-250"/>
    </contour>
    <contour>
      <point x="316" y="-250" type="curve" smooth="yes"/>
      <point x="356" y="-250"/>
      <point x="382" y="-223.333"/>
      <point x="382" y="-178" type="curve" smooth="yes"/>
      <point x="382" y="-132.667"/>
      <point x="357.333" y="-106"/>
      <point x="316" y="-106" type="curve" smooth="yes"/>
      <point x="274.667" y="-106"/>
      <point x="249" y="-131.333"/>
      <point x="249" y="-178" type="curve" smooth="yes"/>
      <point x="249" y="-224.667"/>
      <point x="276" y="-250"/>
    </contour>
    <contour>
      <point x="485" y="-250" type="curve" smooth="yes"/>
      <point x="525" y="-250"/>
      <point x="551" y="-223.333"/>
      <point x="551" y="-178" type="curve" smooth="yes"/>
      <point x="551" y="-132.667"/>
      <point x="526.333" y="-106"/>
      <point x="485" y="-106" type="curve" smooth="yes"/>
      <point x="443.667" y="-106"/>
      <point x="418" y="-131.333"/>
      <point x="418" y="-178" type="curve" smooth="yes"/>
      <point x="418" y="-224.667"/>
      <point x="445" y="-250"/>
    </contour>
  </outline>
</glyph>
<glyph name="hah-ar.init" format="2">
  <advance width="613"/>
  <note>
uni062D.init
</note>
  <anchor x="244" y="-78" name="bottom"/>
  <anchor x="205" y="586" name="top"/>
  <outline>
    <contour>
      <point x="-5" y="0" type="curve" smooth="yes"/>
      <point x="548" y="0" type="line"/>
      <point x="548" y="120" type="line"/>
      <point x="518.667" y="148.667"/>
      <point x="495.333" y="212.667"/>
      <point x="478" y="312" type="curve" smooth="yes"/>
      <point x="460" y="413"/>
      <point x="417" y="469"/>
      <point x="343" y="493" type="curve" smooth="yes"/>
      <point x="316" y="501"/>
      <point x="285" y="505"/>
      <point x="249" y="505" type="curve" smooth="yes"/>
      <point x="169" y="505"/>
      <point x="99.333" y="489"/>
      <point x="40" y="457" type="curve"/>
      <point x="85" y="347" type="line"/>
      <point x="133" y="373.667"/>
      <point x="171.333" y="385"/>
      <point x="218" y="385" type="curve" smooth="yes"/>
      <point x="288.667" y="385"/>
      <point x="319.333" y="353.667"/>
      <point x="338" y="263" type="curve" smooth="yes"/>
      <point x="352" y="191.667"/>
      <point x="372" y="144.333"/>
      <point x="398" y="121" type="curve"/>
      <point x="-5" y="120" type="line" smooth="yes"/>
      <point x="-8.333" y="120"/>
      <point x="-10" y="118.667"/>
      <point x="-10" y="116" type="curve" smooth="yes"/>
      <point x="-10" y="5" type="line" smooth="yes"/>
      <point x="-10" y="1.667"/>
      <point x="-8.333" y="0"/>
    </contour>
  </outline>
</glyph>
<glyph name="hah_alt.fina" format="2">
  <advance width="645"/>
  <note>
hah_alt.fina
</note>
  <outline>
    <contour>
      <point x="273" y="-326" type="curve"/>
      <point x="303" y="-204" type="line"/>
      <point x="237.667" y="-204"/>
      <point x="191" y="-166"/>
      <point x="191" y="-110" type="curve" smooth="yes"/>
      <point x="191" y="-49"/>
      <point x="226" y="-5"/>
      <point x="291.5" y="28.5" type="curve" smooth="yes"/>
      <point x="323.833" y="44.833"/>
      <point x="380.333" y="63.333"/>
      <point x="461" y="84" type="curve"/>
      <point x="499.667" y="26.667"/>
      <point x="552" y="0"/>
      <point x="644" y="0" type="curve" smooth="yes"/>
      <point x="650" y="0" type="line" smooth="yes"/>
      <point x="653.333" y="0"/>
      <point x="655" y="1.667"/>
      <point x="655" y="5" type="curve" smooth="yes"/>
      <point x="655" y="116" type="line" smooth="yes"/>
      <point x="655" y="118.667"/>
      <point x="653.333" y="120"/>
      <point x="650" y="120" type="curve" smooth="yes"/>
      <point x="644" y="120" type="line" smooth="yes"/>
      <point x="611" y="120"/>
      <point x="580" y="143"/>
      <point x="556" y="185" type="curve" smooth="yes"/>
      <point x="538" y="217"/>
      <point x="523" y="260"/>
      <point x="514" y="312" type="curve" smooth="yes"/>
      <point x="492" y="440.667"/>
      <point x="414.667" y="505"/>
      <point x="282" y="505" type="curve" smooth="yes"/>
      <point x="203.333" y="505"/>
      <point x="113" y="483.667"/>
      <point x="49" y="449" type="curve"/>
      <point x="102" y="339" type="line"/>
      <point x="158" y="369.667"/>
      <point x="207.667" y="385"/>
      <point x="251" y="385" type="curve" smooth="yes"/>
      <point x="323" y="385"/>
      <point x="363.667" y="348"/>
      <point x="385" y="268" type="curve" smooth="yes"/>
      <point x="392.333" y="240.667"/>
      <point x="400.667" y="213.667"/>
      <point x="410" y="187" type="curve"/>
      <point x="262" y="147"/>
      <point x="183.667" y="108"/>
      <point x="129" y="60" type="curve" smooth="yes"/>
      <point x="74.333" y="12"/>
      <point x="45" y="-47.333"/>
      <point x="45" y="-118" type="curve" smooth="yes"/>
      <point x="45" y="-243.333"/>
      <point x="135.667" y="-326"/>
    </contour>
  </outline>
</glyph>
<glyph name="hah_alt.isol" format="2">
  <advance width="683"/>
  <note>
hah_alt.isol
</note>
  <outline>
    <contour>
      <point x="542" y="0" type="curve"/>
      <point x="618" y="98" type="line"/>
      <point x="563.333" y="139.333"/>
      <point x="536.667" y="186.667"/>
      <point x="514" y="312" type="curve" smooth="yes"/>
      <point x="492" y="440.667"/>
      <point x="414.667" y="505"/>
      <point x="282" y="505" type="curve" smooth="yes"/>
      <point x="203.333" y="505"/>
      <point x="113" y="483.667"/>
      <point x="49" y="449" type="curve"/>
      <point x="102" y="339" type="line"/>
      <point x="158" y="369.667"/>
      <point x="207.667" y="385"/>
      <point x="251" y="385" type="curve" smooth="yes"/>
      <point x="323" y="385"/>
      <point x="365" y="346.667"/>
      <point x="385" y="268" type="curve" smooth="yes"/>
      <point x="391" y="245.333"/>
      <point x="399" y="218.333"/>
      <point x="409" y="187" type="curve"/>
      <point x="263.667" y="147"/>
      <point x="182.667" y="107"/>
      <point x="128" y="59" type="curve" smooth="yes"/>
      <point x="73.333" y="11"/>
      <point x="45" y="-47.333"/>
      <point x="45" y="-118" type="curve" smooth="yes"/>
      <point x="45" y="-243.333"/>
      <point x="135.667" y="-326"/>
      <point x="273" y="-326" type="curve"/>
      <point x="303" y="-204" type="line"/>
      <point x="237.667" y="-204"/>
      <point x="191" y="-166"/>
      <point x="191" y="-110" type="curve" smooth="yes"/>
      <point x="191" y="-49"/>
      <point x="226" y="-5"/>
      <point x="291.5" y="28.5" type="curve" smooth="yes"/>
      <point x="323.833" y="44.833"/>
      <point x="380.333" y="63.333"/>
      <point x="461" y="84" type="curve"/>
      <point x="482.333" y="54"/>
      <point x="509.333" y="26"/>
    </contour>
  </outline>
</glyph>
<glyph name="hehgoal-ar.fina" format="2">
  <advance width="795"/>
  <note>
uni06C1.fina
</note>
  <anchor x="342" y="-78" name="bottom"/>
  <anchor x="342" y="537" name="top"/>
  <outline>
    <contour>
      <point x="50" y="0" type="curve"/>
      <point x="217" y="0" type="line"/>
      <point x="307.667" y="174.667"/>
      <point x="359.333" y="247.5"/>
      <point x="422" y="301.5" type="curve" smooth="yes"/>
      <point x="453.333" y="328.5"/>
      <point x="488" y="349"/>
      <point x="526" y="363" type="curve"/>
      <point x="526" y="0" type="line"/>
      <point x="800" y="0" type="line" smooth="yes"/>
      <point x="803.333" y="0"/>
      <point x="805" y="1.667"/>
      <point x="805" y="5" type="curve" smooth="yes"/>
      <point x="805" y="116" type="line" smooth="yes"/>
      <point x="805" y="118.667"/>
      <point x="803.333" y="120"/>
      <point x="800" y="120" type="curve" smooth="yes"/>
      <point x="675" y="120" type="line"/>
      <point x="675" y="485" type="line"/>
      <point x="521" y="485" type="line"/>
      <point x="408" y="447"/>
      <point x="315" y="388"/>
      <point x="234.5" y="294.5" type="curve" smooth="yes"/>
      <point x="168" y="217"/>
      <point x="118" y="126"/>
    </contour>
  </outline>
</glyph>
<glyph name="kafRing-ar.fina" format="2">
  <advance width="937"/>
  <note>
uni06AB.fina
</note>
  <anchor x="391" y="-78" name="bottom"/>
  <anchor x="342" y="732" name="top"/>
  <outline>
    <contour>
      <point x="649" y="488" type="curve" smooth="yes"/>
      <point x="717" y="488"/>
      <point x="761" y="530"/>
      <point x="761" y="594" type="curve" smooth="yes"/>
      <point x="761" y="636.667"/>
      <point x="739.333" y="669"/>
      <point x="706" y="685" type="curve"/>
      <point x="727.333" y="695.667"/>
      <point x="746" y="703.333"/>
      <point x="762" y="708" type="curve"/>
      <point x="707" y="842" type="line"/>
      <point x="597" y="802"/>
      <point x="493" y="716"/>
      <point x="410" y="597" type="curve" smooth="yes"/>
      <point x="382" y="556"/>
      <point x="356" y="511"/>
      <point x="334" y="463" type="curve"/>
      <point x="334" y="355" type="line"/>
      <point x="504" y="355" type="line" smooth="yes"/>
      <point x="605.333" y="355"/>
      <point x="663" y="311.333"/>
      <point x="663" y="230" type="curve" smooth="yes"/>
      <point x="663" y="120" type="line"/>
      <point x="308" y="120" type="line" smooth="yes"/>
      <point x="250.667" y="120"/>
      <point x="214" y="159"/>
      <point x="214" y="223" type="curve" smooth="yes"/>
      <point x="214" y="257"/>
      <point x="219" y="300.667"/>
      <point x="229" y="354" type="curve"/>
      <point x="97" y="354" type="line"/>
      <point x="75.667" y="304.667"/>
      <point x="65" y="253.667"/>
      <point x="65" y="201" type="curve" smooth="yes"/>
      <point x="65" y="75.667"/>
      <point x="140" y="0"/>
      <point x="264" y="0" type="curve" smooth="yes"/>
      <point x="942" y="0" type="line" smooth="yes"/>
      <point x="945.333" y="0"/>
      <point x="947" y="1.667"/>
      <point x="947" y="5" type="curve" smooth="yes"/>
      <point x="947" y="116" type="line" smooth="yes"/>
      <point x="947" y="118.667"/>
      <point x="945.333" y="120"/>
      <point x="942" y="120" type="curve" smooth="yes"/>
      <point x="812" y="120" type="line"/>
      <point x="812" y="249" type="line" smooth="yes"/>
      <point x="812" y="397"/>
      <point x="715" y="475"/>
      <point x="527" y="475" type="curve" smooth="yes"/>
      <point x="489" y="475" type="line"/>
      <point x="511" y="508.333"/>
      <point x="530" y="534"/>
      <point x="546" y="552" type="curve"/>
      <point x="560.667" y="510.667"/>
      <point x="598.333" y="488"/>
    </contour>
    <contour>
      <point x="649" y="549" type="curve" smooth="yes"/>
      <point x="619.667" y="549"/>
      <point x="605" y="565"/>
      <point x="605" y="593" type="curve" smooth="yes"/>
      <point x="605" y="619.667"/>
      <point x="622.333" y="637"/>
      <point x="649" y="637" type="curve" smooth="yes"/>
      <point x="674.333" y="637"/>
      <point x="693" y="619.667"/>
      <point x="693" y="593" type="curve" smooth="yes"/>
      <point x="693" y="565"/>
      <point x="674.333" y="549"/>
    </contour>
  </outline>
</glyph>
<glyph name="keheh-ar.fina" format="2">
  <advance width="937"/>
  <note>
uni06A9.fina
</note>
  <anchor x="391" y="-78" name="bottom"/>
  <anchor x="342" y="732" name="top"/>
  <outline>
    <contour>
      <point x="264" y="0" type="curve" smooth="yes"/>
      <point x="942" y="0" type="line" smooth="yes"/>
      <point x="945.333" y="0"/>
      <point x="947" y="1.667"/>
      <point x="947" y="5" type="curve" smooth="yes"/>
      <point x="947" y="116" type="line" smooth="yes"/>
      <point x="947" y="118.667"/>
      <point x="945.333" y="120"/>
      <point x="942" y="120" type="curve" smooth="yes"/>
      <point x="812" y="120" type="line"/>
      <point x="812" y="300" type="line" smooth="yes"/>
      <point x="812" y="450.667"/>
      <point x="717" y="526"/>
      <point x="527" y="526" type="curve" smooth="yes"/>
      <point x="489" y="526" type="line"/>
      <point x="534.333" y="596.667"/>
      <point x="647.333" y="673.333"/>
      <point x="762" y="708" type="curve"/>
      <point x="707" y="842" type="line"/>
      <point x="577" y="795"/>
      <point x="469" y="715"/>
      <point x="394" y="614" type="curve" smooth="yes"/>
      <point x="371" y="582"/>
      <point x="351" y="549"/>
      <point x="334" y="514" type="curve"/>
      <point x="334" y="406" type="line"/>
      <point x="504" y="406" type="line" smooth="yes"/>
      <point x="605.333" y="406"/>
      <point x="663" y="361"/>
      <point x="663" y="281" type="curve" smooth="yes"/>
      <point x="663" y="120" type="line"/>
      <point x="308" y="120" type="line" smooth="yes"/>
      <point x="250.667" y="120"/>
      <point x="214" y="159"/>
      <point x="214" y="223" type="curve" smooth="yes"/>
      <point x="214" y="257"/>
      <point x="219" y="300.667"/>
      <point x="229" y="354" type="curve"/>
      <point x="97" y="354" type="line"/>
      <point x="75.667" y="304.667"/>
      <point x="65" y="253.667"/>
      <point x="65" y="201" type="curve" smooth="yes"/>
      <point x="65" y="75.667"/>
      <point x="140" y="0"/>
    </contour>
  </outline>
</glyph>
<glyph name="meem-ar.fina" format="2">
  <advance width="742"/>
  <note>
uni0645.fina
</note>
  <anchor x="400" y="-78" name="bottom"/>
  <anchor x="342" y="566" name="top"/>
  <outline>
    <contour>
      <point x="295" y="0" type="curve" smooth="yes"/>
      <point x="387" y="0" type="line" smooth="yes"/>
      <point x="457.667" y="0"/>
      <point x="526.333" y="23"/>
      <point x="577" y="67" type="curve"/>
      <point x="623.667" y="17.667"/>
      <point x="671.333" y="0"/>
      <point x="742" y="0" type="curve" smooth="yes"/>
      <point x="747" y="0" type="line" smooth="yes"/>
      <point x="750.333" y="0"/>
      <point x="752" y="1.667"/>
      <point x="752" y="5" type="curve" smooth="yes"/>
      <point x="752" y="116" type="line" smooth="yes"/>
      <point x="752" y="118.667"/>
      <point x="750.333" y="120"/>
      <point x="747" y="120" type="curve" smooth="yes"/>
      <point x="742" y="120" type="line" smooth="yes"/>
      <point x="694" y="120"/>
      <point x="665" y="130.333"/>
      <point x="641" y="157" type="curve"/>
      <point x="653.667" y="189.667"/>
      <point x="660" y="223.667"/>
      <point x="660" y="259" type="curve" smooth="yes"/>
      <point x="660" y="352.333"/>
      <point x="616.667" y="427.333"/>
      <point x="542" y="466" type="curve" smooth="yes"/>
      <point x="504.667" y="485.333"/>
      <point x="463.333" y="495"/>
      <point x="418" y="495" type="curve" smooth="yes"/>
      <point x="360.667" y="495"/>
      <point x="280" y="472.667"/>
      <point x="220" y="438" type="curve"/>
      <point x="192" y="392.667"/>
      <point x="169" y="316.667"/>
      <point x="169" y="258" type="curve" smooth="yes"/>
      <point x="169" y="208"/>
      <point x="178" y="161.667"/>
      <point x="196" y="119" type="curve"/>
      <point x="194" y="119" type="line" smooth="yes"/>
      <point x="111" y="113"/>
      <point x="65" y="59"/>
      <point x="65" y="-28" type="curve" smooth="yes"/>
      <point x="65" y="-320" type="line"/>
      <point x="214" y="-320" type="line"/>
      <point x="214" y="-77" type="line" smooth="yes"/>
      <point x="214" y="-22.333"/>
      <point x="235" y="0"/>
    </contour>
    <contour>
      <point x="307" y="237" type="curve" smooth="yes"/>
      <point x="307" y="275"/>
      <point x="312" y="311.667"/>
      <point x="322" y="347" type="curve"/>
      <point x="354" y="365.667"/>
      <point x="385" y="375"/>
      <point x="415" y="375" type="curve" smooth="yes"/>
      <point x="472.333" y="375"/>
      <point x="510" y="331"/>
      <point x="510" y="259" type="curve" smooth="yes"/>
      <point x="510" y="181.667"/>
      <point x="448" y="120"/>
      <point x="368" y="120" type="curve" smooth="yes"/>
      <point x="330" y="120" type="line"/>
      <point x="314.667" y="164"/>
      <point x="307" y="203"/>
    </contour>
  </outline>
</glyph>
<glyph name="meem-ar.init" format="2">
  <advance width="627"/>
  <note>
uni0645.init
</note>
  <anchor x="254" y="-78" name="bottom"/>
  <anchor x="273" y="566" name="top"/>
  <outline>
    <contour>
      <point x="-5" y="0" type="curve" smooth="yes"/>
      <point x="299" y="0" type="line" smooth="yes"/>
      <point x="400.333" y="0"/>
      <point x="489.167" y="45.333"/>
      <point x="536.5" y="124" type="curve" smooth="yes"/>
      <point x="560.167" y="163.333"/>
      <point x="572" y="208.333"/>
      <point x="572" y="259" type="curve" smooth="yes"/>
      <point x="572" y="353.667"/>
      <point x="528.667" y="427.333"/>
      <point x="454" y="466" type="curve" smooth="yes"/>
      <point x="416.667" y="485.333"/>
      <point x="375.333" y="495"/>
      <point x="330" y="495" type="curve" smooth="yes"/>
      <point x="275.333" y="495"/>
      <point x="196" y="475.333"/>
      <point x="132" y="438" type="curve"/>
      <point x="102.667" y="390"/>
      <point x="81" y="315.333"/>
      <point x="81" y="258" type="curve" smooth="yes"/>
      <point x="81" y="207.333"/>
      <point x="90" y="161.333"/>
      <point x="108" y="120" type="curve"/>
      <point x="-5" y="120" type="line" smooth="yes"/>
      <point x="-8.333" y="120"/>
      <point x="-10" y="118.667"/>
      <point x="-10" y="116" type="curve" smooth="yes"/>
      <point x="-10" y="5" type="line" smooth="yes"/>
      <point x="-10" y="1.667"/>
      <point x="-8.333" y="0"/>
    </contour>
    <contour>
      <point x="219" y="237" type="curve" smooth="yes"/>
      <point x="219" y="275"/>
      <point x="224" y="311.667"/>
      <point x="234" y="347" type="curve"/>
      <point x="266" y="365.667"/>
      <point x="297" y="375"/>
      <point x="327" y="375" type="curve" smooth="yes"/>
      <point x="384.333" y="375"/>
      <point x="422" y="329.667"/>
      <point x="422" y="259" type="curve" smooth="yes"/>
      <point x="422" y="181.667"/>
      <point x="360" y="120"/>
      <point x="280" y="120" type="curve" smooth="yes"/>
      <point x="242" y="120" type="line"/>
      <point x="226.667" y="164"/>
      <point x="219" y="203"/>
    </contour>
  </outline>
</glyph>
<glyph name="meem-ar.medi" format="2">
  <advance width="653"/>
  <note>
uni0645.medi
</note>
  <anchor x="254" y="-78" name="bottom"/>
  <anchor x="273" y="566" name="top"/>
  <outline>
    <contour>
      <point x="108" y="120" type="curve"/>
      <point x="-5" y="120" type="line" smooth="yes"/>
      <point x="-8.333" y="120"/>
      <point x="-10" y="118.667"/>
      <point x="-10" y="116" type="curve" smooth="yes"/>
      <point x="-10" y="5" type="line" smooth="yes"/>
      <point x="-10" y="1.667"/>
      <point x="-8.333" y="0"/>
      <point x="-5" y="0" type="curve" smooth="yes"/>
      <point x="299" y="0" type="line" smooth="yes"/>
      <point x="368.333" y="0"/>
      <point x="437.333" y="23"/>
      <point x="488" y="67" type="curve"/>
      <point x="533.333" y="17.667"/>
      <point x="582.333" y="0"/>
      <point x="653" y="0" type="curve" smooth="yes"/>
      <point x="658" y="0" type="line" smooth="yes"/>
      <point x="661.333" y="0"/>
      <point x="663" y="1.667"/>
      <point x="663" y="5" type="curve" smooth="yes"/>
      <point x="663" y="116" type="line" smooth="yes"/>
      <point x="663" y="118.667"/>
      <point x="661.333" y="120"/>
      <point x="658" y="120" type="curve" smooth="yes"/>
      <point x="653" y="120" type="line" smooth="yes"/>
      <point x="606.333" y="120"/>
      <point x="577" y="129.333"/>
      <point x="553" y="156" type="curve"/>
      <point x="565.667" y="188"/>
      <point x="572" y="222.333"/>
      <point x="572" y="259" type="curve" smooth="yes"/>
      <point x="572" y="353.667"/>
      <point x="528.667" y="427.333"/>
      <point x="454" y="466" type="curve" smooth="yes"/>
      <point x="416.667" y="485.333"/>
      <point x="375.333" y="495"/>
      <point x="330" y="495" type="curve" smooth="yes"/>
      <point x="275.333" y="495"/>
      <point x="196" y="475.333"/>
      <point x="132" y="438" type="curve"/>
      <point x="102.667" y="390"/>
      <point x="81" y="315.333"/>
      <point x="81" y="258" type="curve" smooth="yes"/>
      <point x="81" y="207.333"/>
      <point x="90" y="161.333"/>
    </contour>
    <contour>
      <point x="219" y="237" type="curve" smooth="yes"/>
      <point x="219" y="275"/>
      <point x="224" y="311.667"/>
      <point x="234" y="347" type="curve"/>
      <point x="266" y="365.667"/>
      <point x="297" y="375"/>
      <point x="327" y="375" type="curve" smooth="yes"/>
      <point x="384.333" y="375"/>
      <point x="422" y="329.667"/>
      <point x="422" y="259" type="curve" smooth="yes"/>
      <point x="422" y="181.667"/>
      <point x="360" y="120"/>
      <point x="280" y="120" type="curve" smooth="yes"/>
      <point x="242" y="120" type="line"/>
      <point x="226.667" y="164"/>
      <point x="219" y="203"/>
    </contour>
  </outline>
</glyph>
<glyph name="qafDotless-ar.fina" format="2">
  <advance width="997"/>
  <note>
uni066F.fina
</note>
  <anchor x="439" y="-312" name="bottom"/>
  <anchor x="586" y="566" name="top"/>
  <outline>
    <contour>
      <point x="1002" y="120" type="curve" smooth="yes"/>
      <point x="877" y="120" type="line"/>
      <point x="877" y="495" type="line"/>
      <point x="700" y="495" type="line" smooth="yes"/>
      <point x="576" y="495"/>
      <point x="486.333" y="453.667"/>
      <point x="441" y="379" type="curve" smooth="yes"/>
      <point x="418.333" y="341.667"/>
      <point x="407" y="298"/>
      <point x="407" y="248" type="curve" smooth="yes"/>
      <point x="407" y="148"/>
      <point x="450.5" y="71.167"/>
      <point x="524.5" y="30.5" type="curve" smooth="yes"/>
      <point x="561.5" y="10.167"/>
      <point x="603.667" y="0"/>
      <point x="651" y="0" type="curve" smooth="yes"/>
      <point x="728" y="0" type="line"/>
      <point x="728" y="-5" type="line" smooth="yes"/>
      <point x="728" y="-85"/>
      <point x="673.333" y="-120"/>
      <point x="544" y="-120" type="curve" smooth="yes"/>
      <point x="375" y="-120" type="line" smooth="yes"/>
      <point x="269.667" y="-120"/>
      <point x="214" y="-61"/>
      <point x="214" y="39" type="curve" smooth="yes"/>
      <point x="214" y="107"/>
      <point x="226.667" y="190.333"/>
      <point x="248" y="261" type="curve"/>
      <point x="116" y="261" type="line"/>
      <point x="84" y="198.333"/>
      <point x="65" y="116"/>
      <point x="65" y="40" type="curve" smooth="yes"/>
      <point x="65" y="-65.333"/>
      <point x="112.667" y="-156"/>
      <point x="194" y="-204" type="curve" smooth="yes"/>
      <point x="234.667" y="-228"/>
      <point x="280" y="-240"/>
      <point x="330" y="-240" type="curve" smooth="yes"/>
      <point x="594" y="-240" type="line" smooth="yes"/>
      <point x="778" y="-240"/>
      <point x="876" y="-150"/>
      <point x="876" y="-4" type="curve" smooth="yes"/>
      <point x="876" y="0" type="line"/>
      <point x="1002" y="0" type="line" smooth="yes"/>
      <point x="1005.333" y="0"/>
      <point x="1007" y="1.667"/>
      <point x="1007" y="5" type="curve" smooth="yes"/>
      <point x="1007" y="116" type="line" smooth="yes"/>
      <point x="1007" y="118.667"/>
      <point x="1005.333" y="120"/>
    </contour>
    <contour>
      <point x="700" y="120" type="line" smooth="yes"/>
      <point x="612" y="120"/>
      <point x="560" y="160.667"/>
      <point x="560" y="242" type="curve" smooth="yes"/>
      <point x="560" y="330.667"/>
      <point x="607.333" y="375"/>
      <point x="702" y="375" type="curve" smooth="yes"/>
      <point x="728" y="375" type="line"/>
      <point x="728" y="120" type="line"/>
    </contour>
  </outline>
</glyph>
<glyph name="reh-ar.fina" format="2">
  <advance width="478"/>
  <note>
uni0631.fina
</note>
  <anchor x="98" y="-293" name="bottom"/>
  <anchor x="207" y="563" name="top"/>
  <outline>
    <contour>
      <point x="353" y="0" type="line"/>
      <point x="483" y="0" type="line" smooth="yes"/>
      <point x="486.333" y="0"/>
      <point x="488" y="1.667"/>
      <point x="488" y="5" type="curve" smooth="yes"/>
      <point x="488" y="116" type="line" smooth="yes"/>
      <point x="488" y="118.667"/>
      <point x="486.333" y="120"/>
      <point x="483" y="120" type="curve" smooth="yes"/>
      <point x="353" y="120" type="line"/>
      <point x="353" y="495" type="line"/>
      <point x="204" y="495" type="line"/>
      <point x="204" y="-9" type="line" smooth="yes"/>
      <point x="204" y="-70.333"/>
      <point x="168.333" y="-116"/>
      <point x="115" y="-116" type="curve" smooth="yes"/>
      <point x="77.667" y="-116"/>
      <point x="54.667" y="-109.667"/>
      <point x="20" y="-87" type="curve"/>
      <point x="-40" y="-184" type="line"/>
      <point x="22.667" y="-226.667"/>
      <point x="76" y="-240"/>
      <point x="144" y="-240" type="curve" smooth="yes"/>
      <point x="270.667" y="-240"/>
      <point x="353" y="-153.333"/>
      <point x="353" y="-16" type="curve" smooth="yes"/>
    </contour>
  </outline>
</glyph>
<glyph name="rehStroke-ar.fina" format="2">
  <advance width="478"/>
  <note>
uni075B.fina
</note>
  <anchor x="127" y="-391" name="bottom"/>
  <anchor x="205" y="566" name="top"/>
  <outline>
    <contour>
      <point x="353" y="120" type="line"/>
      <point x="353" y="495" type="line"/>
      <point x="204" y="495" type="line"/>
      <point x="204" y="-18" type="line" smooth="yes"/>
      <point x="204" y="-29.333"/>
      <point x="203" y="-40.333"/>
      <point x="201" y="-51" type="curve"/>
      <point x="62" y="-51" type="line"/>
      <point x="62" y="-148" type="line"/>
      <point x="167" y="-148" type="line"/>
      <point x="145.667" y="-184.667"/>
      <point x="113.667" y="-221"/>
      <point x="71" y="-257" type="curve"/>
      <point x="161" y="-360" type="line"/>
      <point x="246.333" y="-286.667"/>
      <point x="297.667" y="-220"/>
      <point x="327" y="-148" type="curve"/>
      <point x="414" y="-148" type="line"/>
      <point x="414" y="-51" type="line"/>
      <point x="351" y="-51" type="line"/>
      <point x="352" y="-39"/>
      <point x="352" y="-28"/>
      <point x="353" y="-16" type="curve"/>
      <point x="353" y="0" type="line"/>
      <point x="483" y="0" type="line" smooth="yes"/>
      <point x="486.333" y="0"/>
      <point x="488" y="1.667"/>
      <point x="488" y="5" type="curve" smooth="yes"/>
      <point x="488" y="116" type="line" smooth="yes"/>
      <point x="488" y="118.667"/>
      <point x="486.333" y="120"/>
      <point x="483" y="120" type="curve" smooth="yes"/>
    </contour>
  </outline>
</glyph>
<glyph name="seen-ar.medi" format="2">
  <advance width="1044"/>
  <note>
uni0633.medi
</note>
  <anchor x="449" y="-78" name="bottom"/>
  <anchor x="479" y="518" name="top"/>
  <outline>
    <contour>
      <point x="711" y="0" type="curve" smooth="yes"/>
      <point x="1049" y="0" type="line" smooth="yes"/>
      <point x="1052.333" y="0"/>
      <point x="1054" y="1.667"/>
      <point x="1054" y="5" type="curve" smooth="yes"/>
      <point x="1054" y="116" type="line" smooth="yes"/>
      <point x="1054" y="118.667"/>
      <point x="1052.333" y="120"/>
      <point x="1049" y="120" type="curve" smooth="yes"/>
      <point x="919" y="120" type="line"/>
      <point x="919" y="495" type="line"/>
      <point x="770" y="495" type="line"/>
      <point x="770" y="120" type="line"/>
      <point x="708" y="120" type="line" smooth="yes"/>
      <point x="656" y="120"/>
      <point x="629.333" y="135"/>
      <point x="596" y="179" type="curve"/>
      <point x="598" y="193"/>
      <point x="599" y="208"/>
      <point x="599" y="224" type="curve" smooth="yes"/>
      <point x="599" y="417" type="line"/>
      <point x="450" y="417" type="line"/>
      <point x="450" y="236" type="line" smooth="yes"/>
      <point x="450" y="154.667"/>
      <point x="420.667" y="120"/>
      <point x="354" y="120" type="curve" smooth="yes"/>
      <point x="269" y="120" type="line"/>
      <point x="269" y="417" type="line"/>
      <point x="120" y="417" type="line"/>
      <point x="120" y="120" type="line"/>
      <point x="-5" y="120" type="line" smooth="yes"/>
      <point x="-8.333" y="120"/>
      <point x="-10" y="118.667"/>
      <point x="-10" y="116" type="curve" smooth="yes"/>
      <point x="-10" y="5" type="line" smooth="yes"/>
      <point x="-10" y="1.667"/>
      <point x="-8.333" y="0"/>
      <point x="-5" y="0" type="curve" smooth="yes"/>
      <point x="387" y="0" type="line" smooth="yes"/>
      <point x="461" y="0"/>
      <point x="516.667" y="25"/>
      <point x="554" y="75" type="curve"/>
      <point x="602" y="25"/>
      <point x="654.333" y="0"/>
    </contour>
  </outline>
</glyph>
<glyph name="threedots.rev.below" format="2">
  <note>
threedots.rev.below
</note>
  <outline>
    <contour>
      <point x="8" y="-59" type="curve" smooth="yes"/>
      <point x="-26.667" y="-59"/>
      <point x="-49" y="-84"/>
      <point x="-49" y="-120" type="curve" smooth="yes"/>
      <point x="-49" y="-157.333"/>
      <point x="-26.667" y="-181"/>
      <point x="8" y="-181" type="curve" smooth="yes"/>
      <point x="40" y="-181"/>
      <point x="65" y="-162.667"/>
      <point x="65" y="-120" type="curve" smooth="yes"/>
      <point x="65" y="-78.667"/>
      <point x="40" y="-59"/>
    </contour>
    <contour>
      <point x="93" y="-185" type="curve" smooth="yes"/>
      <point x="53" y="-185"/>
      <point x="27" y="-213"/>
      <point x="27" y="-257" type="curve" smooth="yes"/>
      <point x="27" y="-302.333"/>
      <point x="51.667" y="-329"/>
      <point x="93" y="-329" type="curve" smooth="yes"/>
      <point x="135.667" y="-329"/>
      <point x="160" y="-302.333"/>
      <point x="160" y="-257" type="curve" smooth="yes"/>
      <point x="160" y="-211.667"/>
      <point x="134.333" y="-185"/>
    </contour>
    <contour>
      <point x="-77" y="-185" type="curve" smooth="yes"/>
      <point x="-117" y="-185"/>
      <point x="-143" y="-213"/>
      <point x="-143" y="-257" type="curve" smooth="yes"/>
      <point x="-143" y="-302.333"/>
      <point x="-117" y="-329"/>
      <point x="-77" y="-329" type="curve" smooth="yes"/>
      <point x="-34.333" y="-329"/>
      <point x="-10" y="-302.333"/>
      <point x="-10" y="-257" type="curve" smooth="yes"/>
      <point x="-10" y="-211.667"/>
      <point x="-35.667" y="-185"/>
    </contour>
  </outline>
</glyph>
<glyph name="threedots_alt1.above" format="2">
  <advance width="298"/>
  <note>
threedots_alt1.above
</note>
  <outline>
    <contour>
      <point x="108" y="824" type="curve" smooth="yes"/>
      <point x="134.667" y="824"/>
      <point x="162" y="851.333"/>
      <point x="162" y="878" type="curve" smooth="yes"/>
      <point x="162" y="907.333"/>
      <point x="130.667" y="939"/>
      <point x="100" y="939" type="curve" smooth="yes"/>
      <point x="72" y="939"/>
      <point x="47" y="913.333"/>
      <point x="47" y="884" type="curve" smooth="yes"/>
      <point x="48.333" y="854.667"/>
      <point x="76" y="824"/>
    </contour>
    <contour>
      <point x="85" y="959" type="curve" smooth="yes"/>
      <point x="110.333" y="960.333"/>
      <point x="131" y="982"/>
      <point x="131" y="1006" type="curve" smooth="yes"/>
      <point x="131" y="1027.333"/>
      <point x="105" y="1058"/>
      <point x="81" y="1058" type="curve" smooth="yes"/>
      <point x="55.667" y="1058"/>
      <point x="33" y="1032.667"/>
      <point x="33" y="1010" type="curve" smooth="yes"/>
      <point x="33" y="983.333"/>
      <point x="61" y="959"/>
    </contour>
    <contour>
      <point x="210" y="915" type="curve" smooth="yes"/>
      <point x="236.667" y="915"/>
      <point x="264" y="942.333"/>
      <point x="264" y="969" type="curve" smooth="yes"/>
      <point x="264" y="998.333"/>
      <point x="232.667" y="1030"/>
      <point x="202" y="1030" type="curve" smooth="yes"/>
      <point x="174" y="1030"/>
      <point x="149" y="1004.333"/>
      <point x="149" y="975" type="curve" smooth="yes"/>
      <point x="150.333" y="947"/>
      <point x="178" y="915"/>
    </contour>
  </outline>
</glyph>
<glyph name="twodots.above" format="2">
  <note>
twodots.above
</note>
  <outline>
    <contour>
      <point x="-77" y="581" type="curve" smooth="yes"/>
      <point x="-37" y="581"/>
      <point x="-11" y="607.667"/>
      <point x="-11" y="653" type="curve" smooth="yes"/>
      <point x="-11" y="698.333"/>
      <point x="-35.667" y="725"/>
      <point x="-77" y="725" type="curve" smooth="yes"/>
      <point x="-118.333" y="725"/>
      <point x="-144" y="698.333"/>
      <point x="-144" y="653" type="curve" smooth="yes"/>
      <point x="-144" y="609"/>
      <point x="-118.333" y="581"/>
    </contour>
    <contour>
      <point x="93" y="581" type="curve" smooth="yes"/>
      <point x="133" y="581"/>
      <point x="159" y="609"/>
      <point x="159" y="653" type="curve" smooth="yes"/>
      <point x="159" y="698.333"/>
      <point x="134.333" y="725"/>
      <point x="93" y="725" type="curve" smooth="yes"/>
      <point x="51.667" y="725"/>
      <point x="26" y="698.333"/>
      <point x="26" y="653" type="curve" smooth="yes"/>
      <point x="26" y="609"/>
      <point x="51.667" y="581"/>
    </contour>
  </outline>
</glyph>
<glyph name="twodots.below" format="2">
  <note>
twodots.below
</note>
  <outline>
    <contour>
      <point x="-77" y="-250" type="curve" smooth="yes"/>
      <point x="-37" y="-250"/>
      <point x="-11" y="-223.333"/>
      <point x="-11" y="-178" type="curve" smooth="yes"/>
      <point x="-11" y="-132.667"/>
      <point x="-35.667" y="-106"/>
      <point x="-77" y="-106" type="curve" smooth="yes"/>
      <point x="-118.333" y="-106"/>
      <point x="-144" y="-134"/>
      <point x="-144" y="-178" type="curve" smooth="yes"/>
      <point x="-144" y="-222"/>
      <point x="-118.333" y="-250"/>
    </contour>
    <contour>
      <point x="93" y="-250" type="curve" smooth="yes"/>
      <point x="133" y="-250"/>
      <point x="159" y="-222"/>
      <point x="159" y="-178" type="curve" smooth="yes"/>
      <point x="159" y="-134"/>
      <point x="134.333" y="-106"/>
      <point x="93" y="-106" type="curve" smooth="yes"/>
      <point x="51.667" y="-106"/>
      <point x="26" y="-134"/>
      <point x="26" y="-178" type="curve" smooth="yes"/>
      <point x="26" y="-222"/>
      <point x="51.667" y="-250"/>
    </contour>
  </outline>
</glyph>
<glyph name="twodots.vert.above" format="2">
  <note>
twodots.vert.above
</note>
  <outline>
    <contour>
      <point x="0" y="581" type="curve" smooth="yes"/>
      <point x="40" y="581"/>
      <point x="66" y="607.667"/>
      <point x="66" y="653" type="curve" smooth="yes"/>
      <point x="66" y="698.333"/>
      <point x="41.333" y="725"/>
      <point x="0" y="725" type="curve" smooth="yes"/>
      <point x="-41.333" y="725"/>
      <point x="-67" y="699.667"/>
      <point x="-67" y="653" type="curve" smooth="yes"/>
      <point x="-67" y="606.333"/>
      <point x="-40" y="581"/>
    </contour>
    <contour>
      <point x="0" y="767" type="curve" smooth="yes"/>
      <point x="40" y="767"/>
      <point x="66" y="793.667"/>
      <point x="66" y="839" type="curve" smooth="yes"/>
      <point x="66" y="884.333"/>
      <point x="41.333" y="911"/>
      <point x="0" y="911" type="curve" smooth="yes"/>
      <point x="-41.333" y="911"/>
      <point x="-67" y="885.667"/>
      <point x="-67" y="839" type="curve" smooth="yes"/>
      <point x="-67" y="792.333"/>
      <point x="-40" y="767"/>
    </contour>
  </outline>
</glyph>
<glyph name="twodots.vert.below" format="2">
  <note>
twodots.vert.below
</note>
  <outline>
    <contour>
      <point x="0" y="-436" type="curve" smooth="yes"/>
      <point x="40" y="-436"/>
      <point x="66" y="-409.333"/>
      <point x="66" y="-364" type="curve" smooth="yes"/>
      <point x="66" y="-318.667"/>
      <point x="41.333" y="-292"/>
      <point x="0" y="-292" type="curve" smooth="yes"/>
      <point x="-41.333" y="-292"/>
      <point x="-67" y="-317.333"/>
      <point x="-67" y="-364" type="curve" smooth="yes"/>
      <point x="-67" y="-410.667"/>
      <point x="-40" y="-436"/>
    </contour>
    <contour>
      <point x="0" y="-250" type="curve" smooth="yes"/>
      <point x="40" y="-250"/>
      <point x="66" y="-223.333"/>
      <point x="66" y="-178" type="curve" smooth="yes"/>
      <point x="66" y="-132.667"/>
      <point x="41.333" y="-106"/>
      <point x="0" y="-106" type="curve" smooth="yes"/>
      <point x="-41.333" y="-106"/>
      <point x="-67" y="-131.333"/>
      <point x="-67" y="-178" type="curve" smooth="yes"/>
      <point x="-67" y="-224.667"/>
      <point x="-40" y="-250"/>
    </contour>
  </outline>
</glyph>
<glyph name="wasla" format="2">
  <note>
wasla
</note>
  <anchor x="0" y="762" name="_top"/>
  <anchor x="0" y="762" name="_top2"/>
  <outline>
    <contour>
      <point x="-130" y="826" type="line"/>
      <point x="-130" y="770" type="line"/>
      <point x="114" y="770" type="line"/>
      <point x="114" y="826" type="line" smooth="yes"/>
      <point x="114" y="890"/>
      <point x="81.333" y="928"/>
      <point x="28" y="928" type="curve" smooth="yes"/>
      <point x="-23.333" y="928"/>
      <point x="-60.667" y="894"/>
      <point x="-84" y="826" type="curve"/>
    </contour>
    <contour>
      <point x="63" y="826" type="curve"/>
      <point x="-29" y="826" type="line"/>
      <point x="-19.667" y="852.667"/>
      <point x="0.667" y="871"/>
      <point x="26" y="871" type="curve" smooth="yes"/>
      <point x="50" y="871"/>
      <point x="63" y="859.333"/>
    </contour>
  </outline>
</glyph>
<glyph name="wawring-ar.fina" format="2">
  <advance width="655"/>
  <note>
uni06C4.fina
</note>
  <anchor x="244" y="-342" name="bottom"/>
  <anchor x="322" y="586" name="top"/>
  <outline>
    <contour>
      <point x="252" y="-257" type="curve"/>
      <point x="337" y="-352" type="line"/>
      <point x="467.667" y="-256"/>
      <point x="535" y="-141"/>
      <point x="535" y="-25" type="curve" smooth="yes"/>
      <point x="535" y="0" type="line"/>
      <point x="660" y="0" type="line" smooth="yes"/>
      <point x="663.333" y="0"/>
      <point x="665" y="1.667"/>
      <point x="665" y="5" type="curve" smooth="yes"/>
      <point x="665" y="116" type="line" smooth="yes"/>
      <point x="665" y="118.667"/>
      <point x="663.333" y="120"/>
      <point x="660" y="120" type="curve" smooth="yes"/>
      <point x="535" y="120" type="line"/>
      <point x="535" y="495" type="line"/>
      <point x="383" y="495" type="line" smooth="yes"/>
      <point x="201" y="495"/>
      <point x="65" y="403"/>
      <point x="65" y="233" type="curve" smooth="yes"/>
      <point x="65" y="83.667"/>
      <point x="144.333" y="0"/>
      <point x="287" y="0" type="curve" smooth="yes"/>
      <point x="385" y="0" type="line"/>
      <point x="385" y="-37" type="line"/>
      <point x="385" y="-39"/>
      <point x="385" y="-42"/>
      <point x="385" y="-44" type="curve"/>
      <point x="365.667" y="-30.667"/>
      <point x="342.333" y="-24"/>
      <point x="315" y="-24" type="curve" smooth="yes"/>
      <point x="248.333" y="-24"/>
      <point x="206" y="-65"/>
      <point x="206" y="-129" type="curve" smooth="yes"/>
      <point x="206" y="-183.667"/>
      <point x="236.333" y="-219.333"/>
      <point x="283" y="-230" type="curve"/>
      <point x="273" y="-239"/>
      <point x="262" y="-248"/>
    </contour>
    <contour>
      <point x="386" y="120" type="line"/>
      <point x="317" y="120" type="line" smooth="yes"/>
      <point x="250.333" y="120"/>
      <point x="218" y="157"/>
      <point x="218" y="237" type="curve" smooth="yes"/>
      <point x="218" y="325"/>
      <point x="268.667" y="375"/>
      <point x="354" y="375" type="curve" smooth="yes"/>
      <point x="386" y="375" type="line"/>
    </contour>
    <contour>
      <point x="315" y="-173" type="curve" smooth="yes"/>
      <point x="285.667" y="-173"/>
      <point x="271" y="-155.667"/>
      <point x="271" y="-129" type="curve" smooth="yes"/>
      <point x="271" y="-101"/>
      <point x="288.333" y="-85"/>
      <point x="315" y="-85" type="curve" smooth="yes"/>
      <point x="340.333" y="-85"/>
      <point x="359" y="-101"/>
      <point x="359" y="-129" type="curve" smooth="yes"/>
      <point x="359" y="-155.667"/>
      <point x="340.333" y="-173"/>
    </contour>
  </outline>
</glyph>
<glyph name="yehTail-ar.fina" format="2">
  <advance width="1122"/>
  <note>
uni06CD.fina
</note>
  <anchor x="537" y="-322" name="bottom"/>
  <anchor x="225" y="371" name="top"/>
  <outline>
    <contour>
      <point x="383" y="-240" type="curve" smooth="yes"/>
      <point x="619" y="-240" type="line" smooth="yes"/>
      <point x="811" y="-240"/>
      <point x="906" y="-176.333"/>
      <point x="906" y="-59" type="curve" smooth="yes"/>
      <point x="906" y="-9.667"/>
      <point x="885.667" y="26.5"/>
      <point x="847" y="52.5" type="curve" smooth="yes"/>
      <point x="827.667" y="65.5"/>
      <point x="795.333" y="79.667"/>
      <point x="750" y="95" type="curve" smooth="yes"/>
      <point x="702" y="111"/>
      <point x="678" y="130"/>
      <point x="678" y="158" type="curve" smooth="yes"/>
      <point x="678" y="191.28"/>
      <point x="740.807" y="251"/>
      <point x="776" y="251" type="curve" smooth="yes"/>
      <point x="792" y="251"/>
      <point x="809.5" y="243.167"/>
      <point x="828.5" y="227.5" type="curve" smooth="yes"/>
      <point x="847.5" y="211.833"/>
      <point x="871.667" y="183"/>
      <point x="901" y="141" type="curve" smooth="yes"/>
      <point x="925.667" y="105.667"/>
      <point x="942.667" y="83"/>
      <point x="952" y="73" type="curve" smooth="yes"/>
      <point x="1006.667" y="15.667"/>
      <point x="1050" y="0"/>
      <point x="1122" y="0" type="curve" smooth="yes"/>
      <point x="1127" y="0" type="line" smooth="yes"/>
      <point x="1130.333" y="0"/>
      <point x="1132" y="1.667"/>
      <point x="1132" y="5" type="curve" smooth="yes"/>
      <point x="1132" y="116" type="line" smooth="yes"/>
      <point x="1132" y="118.667"/>
      <point x="1130.333" y="120"/>
      <point x="1127" y="120" type="curve" smooth="yes"/>
      <point x="1122" y="120" type="line" smooth="yes"/>
      <point x="1100" y="120"/>
      <point x="1079.667" y="126.333"/>
      <point x="1061" y="139" type="curve" smooth="yes"/>
      <point x="1042.333" y="151.667"/>
      <point x="1017.667" y="180.333"/>
      <point x="987" y="225" type="curve" smooth="yes"/>
      <point x="928.787" y="308.305"/>
      <point x="895.157" y="349.594"/>
      <point x="850" y="370.5" type="curve" smooth="yes"/>
      <point x="832" y="378.833"/>
      <point x="812.333" y="383"/>
      <point x="791" y="383" type="curve" smooth="yes"/>
      <point x="717.667" y="383"/>
      <point x="628.667" y="323.167"/>
      <point x="578" y="246.5" type="curve" smooth="yes"/>
      <point x="552.667" y="208.167"/>
      <point x="540" y="171.667"/>
      <point x="540" y="137" type="curve" smooth="yes"/>
      <point x="540" y="55.667"/>
      <point x="577" y="13.333"/>
      <point x="689" y="-16" type="curve" smooth="yes"/>
      <point x="726" y="-26"/>
      <point x="758" y="-39"/>
      <point x="758" y="-67" type="curve" smooth="yes"/>
      <point x="758" y="-115"/>
      <point x="697" y="-120"/>
      <point x="618" y="-120" type="curve" smooth="yes"/>
      <point x="445" y="-120" type="line" smooth="yes"/>
      <point x="381" y="-120"/>
      <point x="326" y="-59.333"/>
      <point x="326" y="10" type="curve" smooth="yes"/>
      <point x="326" y="60.667"/>
      <point x="338" y="141.333"/>
      <point x="354" y="204" type="curve"/>
      <point x="294" y="311" type="line"/>
      <point x="-20" y="179" type="line"/>
      <point x="12" y="96" type="line"/>
      <point x="212" y="156" type="line"/>
      <point x="189.333" y="100"/>
      <point x="182" y="62.667"/>
      <point x="182" y="-12" type="curve" smooth="yes"/>
      <point x="182" y="-139"/>
      <point x="260" y="-240"/>
    </contour>
  </outline>
</glyph>
